<?xml version="1.0" encoding="utf-8"?>
<!-- Generator: Adobe Illustrator 23.0.2, SVG Export Plug-In . SVG Version: 6.00 Build 0)  -->
<svg version="1.1" xmlns="http://www.w3.org/2000/svg" xmlns:xlink="http://www.w3.org/1999/xlink" x="0px" y="0px"
	 viewBox="0 0 841.9 462.9" style="enable-background:new 0 0 841.9 462.9;" xml:space="preserve">
<style type="text/css">
	.st0{display:none;}
	.st1{display:inline;}
	.st2{fill:#243561;}
	.st3{fill:#A12829;}
	.st4{fill:#FDFDFD;}
	.st5{fill:#FFFFFF;}
</style>
<g id="Layer_1" class="st0">
	<g class="st1">
		<path class="st2" d="M815.6,272.2c-2.9-27.1-14.1-50.5-32.9-70.1c-21.4-22.2-47.6-35-78.2-38.5c-33.9-3.9-64.8,4.2-92.2,24.4
			c-28.2,20.8-44.7,48.9-49,83.9c-1.8,14.4-0.5,28.5,3.1,42.5c0.8,3,1.4,3.2,3.5,1c4.7-4.9,10.4-8.5,16.6-11.1
			c5.2-2.1,10.6-3.2,16.9-2c-0.8,0.7-1,1-1.2,1.1c-11.1,6.6-14,16.4-7.9,27.9c6.6,12.6,17.8,18.9,31.3,21.3
			c12.4,2.3,24.6,0.2,36.7-2.4c16.5-3.5,32.3-9.5,48.3-15.1c18.1-6.4,36.3-12.3,56.1-9.4c11.8,1.7,23.2,4.5,33,11.6
			c3.2,2.3,3.2,2.4,5-1.3C814.3,316,818,294.5,815.6,272.2z M614.4,270.7c-5.2,2.2-6.3,5.7-3.6,10.7c0.8,1.5-0.3,2.2-1.9,1.7
			c-0.2-0.1-0.4-0.2-0.6-0.3c-3.7-3.8-7.4-4-11.2,0c-0.5,0.6-1.3,0.8-2.1,0.3c-0.8-0.5-0.6-1.3-0.3-2c0.2-0.4,0.3-0.8,0.5-1.2
			c1.6-5,1.6-5-2.7-8.2c-0.9-0.6-2.5-1-2-2.5c0.5-1.4,2-0.9,3.1-0.9c0.4,0,0.9,0,1.8,0c3.6,1.2,4.4-1.7,5.3-4.6c0.3-1.1,0.2-3,2-3
			c1.7,0,1.8,1.8,1.9,3c0.6,3.8,2.7,5.4,6.5,4.7c0.7-0.1,1.5,0,2.3,0c0.7,0,1.3,0.2,1.6,0.9C615.4,269.8,615.1,270.4,614.4,270.7z
			 M616.9,234.1c-0.1,0.1-0.3,0.3-0.5,0.4c-4.1,2.9-4,2.9-2.5,7.6c0.4,1.1,1.5,2.5,0.1,3.5c-1.3,0.9-2.1-0.6-3.1-1.2
			c-5.5-3.6-3.4-3.5-8.8,0c-1,0.6-2,2.2-3.3,1.1c-1.2-0.9-0.1-2.2,0.2-3.3c1.7-5.8,2.6-4-2.6-8c-0.9-0.7-2.8-1.1-2.2-2.7
			c0.6-1.5,2.3-0.7,3.5-0.9c0.1,0,0.2,0,0.3,0c3.8,0.7,5.8-0.7,6.4-4.6c0.2-1.2,0.4-2.6,2-3.2c0.3,0.2,0.7,0.4,1,0.7
			c0.4,0.5,0.6,1.1,0.8,1.7c2,5.3,2,5.3,7.5,5.4c1.1,0,2.6-0.5,3,1.1C619.1,233,617.6,233.3,616.9,234.1z M655.6,241.9
			c-4.9,2.2-6.4,5.5-3.6,10.3c0.4,0.7,0.4,1.5-0.4,2.1c-0.8,0.5-1.5,0.1-2-0.5c-3.6-3.6-7.2-4.1-10.9-0.1c-0.6,0.6-1.4,1.2-2.3,0.5
			c-0.8-0.7-0.5-1.6-0.2-2.4c0.3-0.7,0.4-1.5,0.8-2.1c1.7-2.9,0.6-4.7-2.1-6.2c-1.3-0.7-3.7-1.3-3-3.2c0.6-1.9,2.9-0.4,4.4-1.1
			c4.1,1.3,5-1.3,5.8-4.4c0.3-1.2,0.4-3,1.9-3.1c1.6-0.1,1.8,1.7,2,2.9c0.6,4.1,3,5.4,6.8,4.7c0.6-0.1,1.3,0,1.9,0
			c0.8,0,1.6,0.1,1.8,1C656.7,241,656.2,241.6,655.6,241.9z M659.3,204.1c-0.2,0.1-0.4,0.3-0.5,0.4c-4.6,3.4-4.6,3.4-3,9.1
			c0.2,0.8,0.8,1.7,0,2.4c-0.9,0.8-1.8,0.2-2.6-0.4c-0.2-0.1-0.4-0.2-0.5-0.4c-4.7-3.1-4.7-3.1-9.3,0c-0.9,0.6-1.9,1.8-3.1,0.7
			c-1-0.9-0.1-2,0.3-3c1.2-2.9,2.4-5.6-1.7-7.5c-1.3-0.6-3.6-1.4-3-3.2c0.6-1.9,2.9-0.6,4.6-1c3.4,1.1,4.7-0.9,5.4-4
			c0.2-0.7,0.5-1.4,0.8-2.1c0.3-0.7,0.5-1.5,1.5-1.4c0.7,0.1,1.3,0.6,1.3,1.2c0.7,5.6,3.9,7.4,9.1,6.4c0.7-0.1,1.6,0.1,1.9,1
			C660.7,203.3,659.8,203.7,659.3,204.1z M764.6,294.1c-10.1,7.3-21.4,10.7-32.8,10.8c-26.3-0.1-48.9-16.6-55.4-39.6
			c-7.9-28.3,8.2-57.7,36.5-66.3c18.1-5.5,35.1-3.2,50.8,7.5c0.4,0.2,0.7,0.5,1.1,0.8c0.7,0.6,2,1,1.2,2.2c-0.7,1.1-1.8,0.5-2.6,0.1
			c-4.3-2.2-8.8-3.5-13.6-4.2c-26.9-4.3-51.3,13.5-55.1,40.4c-1.9,13.3,3.1,24.8,11.9,34.5c15.1,16.6,35.7,20.7,56.5,11.5
			c0.9-0.4,2.1-1.4,2.9-0.1C766.9,293,765.4,293.5,764.6,294.1z M772.8,237.2c-2.2,1.6-4.4,3.2-6.7,4.6c-1.8,1.1-2,2.2-1.2,4.1
			c0.9,2.1,1.5,4.3,2.2,6.4c0.4,1.2,1.1,2.5-0.3,3.5c-1.2,0.9-2.2-0.1-3.2-0.7c-2.1-1.5-4.3-2.9-6.4-4.5c-1.3-1-2.3-1.1-3.7,0
			c-2.2,1.7-4.6,3.3-6.9,4.9c-0.9,0.6-1.9,1.2-2.9,0.2c-0.9-0.8-0.7-1.7-0.3-2.7c0.9-2.5,1.4-5,2.5-7.4c0.9-2,0.2-2.9-1.4-3.9
			c-2.1-1.3-4.1-2.8-6.1-4.2c-1-0.7-2.2-1.3-1.6-2.8c0.5-1.5,1.8-1.3,3-1.3c1.3,0,2.6,0,3.9,0c6.2,0,6.2,0,8.3-6
			c0.4-1.1,0.8-2.2,1.2-3.4c0.4-1.1,0.8-2.4,2.3-2.3c1.3,0.1,1.7,1.1,2,2.2c0.8,2.5,1.8,4.9,2.5,7.4c0.5,1.6,1.4,2.2,3,2.1
			c2.8-0.1,5.6,0,8.4,0c1.2,0,2.2,0.2,2.6,1.4C774.5,236,773.6,236.6,772.8,237.2z"/>
		<path class="st3" d="M78.7,18c9.7-0.2,18.8,1.4,27.4,5.4c1.8,0.8,2.9,0.7,3.5-1.1c0.9-2.4,2.6-2.8,4.9-2.6
			c2.9,0.3,6.5-1.2,8.5,0.6c1.8,1.6,1.9,5.1,2.7,7.8c2.9,9.7,5.6,19.5,8.6,29.2c0.6,2,0.2,2.6-1.7,3.1c-3.8,0.9-7.5,1.9-11.3,3.1
			c-1.8,0.6-2.7,0-3.6-1.6c-2.8-5.1-6-10.1-10-14.4c-9-9.7-19.8-14.5-33-10.5c-13.5,4-19.9,14.3-21.9,27.5
			c-1.8,11.4,0,22.4,6.1,32.5c9.6,15.8,26.9,21,43.6,13.1c8.6-4,15.7-9.9,21.6-17.4c1.5-1.9,2.5-2.1,4.4-0.6c3,2.3,6.1,4.4,9.3,6.5
			c1.1,0.7,1.5,1.2,0.5,2.4c-11.2,14.5-24.4,26.1-43.1,29.7c-21.7,4.3-41.9,1.2-58.2-14.7c-16.8-16.4-22-36.6-15-59
			C29,35,45.3,22.8,68,18.7C71.6,18.1,75.3,18,78.7,18z"/>
		<path class="st3" d="M612.3,385.5c27.3-0.6,52.3-9.9,76.8-20.7c14.3-6.4,28.5-13.1,43.8-17c12.6-3.2,25.3-5,38.2-2.5
			c7,1.4,13.3,4.4,18.8,8.9c1.4,1.2,1.4,2,0.3,3.5c-18.2,24.3-42.1,40.2-71.5,47.6c-34.4,8.7-66.9,2.5-98-13.4
			c-2.8-1.4-5.3-3.3-7.9-5C612.6,386.7,612.1,386.5,612.3,385.5z"/>
		<path class="st2" d="M659.3,59.8c8.3-5.1,16.3-9.3,25.7-10.2c9.4-0.9,18.1,0.6,25.4,7.3c4.9,4.5,6,10.4,6,16.6
			c0.1,11.5,0,23,0,34.4c0,6.5,0.8,7.2,7.3,7.2c5.7,0,5.7,0,5.7,5.6c0,2.7-0.1,5.4,0,8.1c0,1.4-0.5,1.9-1.9,1.8c-15.5,0-31,0-46.5,0
			c-1.5,0-1.8-0.6-1.8-1.9c0.1-3.9,0.1-7.8,0-11.7c0-1.7,0.7-2,2.2-1.9c1,0.1,1.9,0,2.9,0c2.9,0,4.6-1.5,4.6-4.3
			c0.3-11.8,0.4-23.6-0.1-35.4c-0.2-4.6-2.8-6.6-7.6-6.6c-7,0-12.5,3.6-18.1,7.2c-1,0.6-0.7,1.5-0.7,2.3c0,10.3-0.1,20.6,0,30.9
			c0,5,1.1,6.1,6.2,5.9c2.8-0.1,3.9,0.5,3.6,3.5c-0.3,3.3-0.1,6.7,0,10.1c0,1.5-0.4,2.1-2,2c-15.2-0.1-30.3-0.1-45.5,0
			c-1.8,0-2.2-0.6-2.1-2.2c0.1-3.7,0.1-7.4,0-11c-0.1-2,0.7-2.4,2.5-2.3c11.8,0.6,10-2.3,10-10.4c0-10.1-0.1-20.1,0.1-30.2
			c0-2.2-0.4-3.1-2.8-2.9c-2.5,0.2-5,0-7.5,0.1c-1.6,0.1-2.3-0.3-2.3-2.1c0.1-3.8,0.1-7.6,0-11.4c0-1.5,0.5-2.1,2-2.2
			c8.7-1,17.2-3.1,25.5-6c2.5-0.9,5.2-0.3,7.7-0.5c1.6-0.1,1.3,1,1.3,2C659.3,54,659.3,56.6,659.3,59.8z"/>
		<path class="st2" d="M607.7,110.6c-2.8-2.5-5.6-5.1-8.3-7.8c-1.5-1.5-2.4-1.4-3.9,0c-4.8,4.7-10.3,8.2-16.8,10.1
			c-13,4-25-3.2-27.7-16.5c-1-4.8-1-4.8,4-4.8c16.6,0,33.1,0,49.7,0c1.2,0,2.9,0.7,2.9-1.8c0.2-12.9-3.7-24.3-14.3-32.2
			c-12.8-9.6-27.4-10.2-42.1-6.2c-24.5,6.7-37.1,30.9-28.4,53.5c6.3,16.6,23.6,27.6,43.2,27.6c16.9,0.2,30.4-7.1,41.9-18.9
			C609.3,112.3,608.8,111.6,607.7,110.6z M552.2,76.3c1.3-6.3,7.3-11.3,14-11.4c6.8-0.1,12.3,4.2,13.7,10.6c0.5,2.1,0.1,2.9-2.2,2.8
			c-3.9-0.2-7.8,0-11.7,0c-4,0-8,0-12,0C552.5,78.3,551.8,78.1,552.2,76.3z"/>
		<path class="st2" d="M315.6,110.8c-2.8-2.5-5.6-5.1-8.2-7.8c-1.5-1.5-2.5-1.7-4.1-0.1c-4.6,4.6-10,7.9-16.2,9.9
			c-13.9,4.4-26.4-3.5-28.6-18c-0.4-2.9,0.5-3.2,2.9-3.2c8.4,0.1,16.9,0.1,25.3,0.1c8.8,0,17.5,0,26.3,0c1.1,0,2.2,0.5,2.4-1.6
			c1-14.7-7.1-29.6-19.8-36c-7.7-3.9-16-5.1-24.6-4.6c-14.4,0.9-26.9,5.9-35.5,17.9c-16.6,23-4.5,55.4,23.6,63.1
			c22.2,6,40.9-0.6,56.6-16.9C316.9,112.4,316.7,111.7,315.6,110.8z M260.1,76c1.3-6.4,7.5-11.2,14.6-11.1c6.6,0.1,12,4.8,13.2,11.2
			c0.4,1.9-0.4,2.2-2,2.1c-4-0.1-8,0-12,0c-4,0-8-0.1-12,0C259.8,78.4,259.8,77.6,260.1,76z"/>
		<path class="st2" d="M377.9,132.5c-10.5,0.1-17.7-1.4-24.4-5.1c-1.3-0.7-2.2-0.9-2.7,0.7c-0.7,2.3-2.4,2.5-4.5,2.5
			c-8.4-0.1-8.4,0-11.5-7.8c-2.2-5.4-4.3-10.9-6.6-16.2c-0.8-1.8-0.4-2.4,1.4-3c4.1-1.5,8.1-3.1,12-4.8c1.6-0.7,2.4-0.3,3.4,1.1
			c6.5,8.6,14.8,14.4,25.5,16.7c3.6,0.8,7.3,0.7,10.8-0.9c1.7-0.8,3.3-2,3.4-4c0.2-2.1-1.3-3.4-2.9-4.4c-2.5-1.6-5.3-2.4-8.1-3.3
			c-9.5-3.2-19.3-5.7-28.4-9.9c-5.7-2.6-10.8-6-13.5-12c-3.7-8-1.4-17.7,5.7-23.8c8.6-7.5,18.9-9.5,30-8.6
			c5.4,0.4,10.7,1.7,15.5,4.3c1,0.6,2,1,2.6-0.5c0.8-2,2.4-2.1,4.2-2.1c8.3,0,8.3,0,10.8,8.1c1.2,3.8,2.3,7.7,3.7,11.4
			c0.9,2.3,0.2,3.2-2,3.9c-3.7,1.2-7.3,2.6-10.9,4.1c-1.8,0.7-2.7,0.5-4-1.1c-6.5-8.1-14.6-13.1-25.3-12.7c-0.4,0-0.9,0-1.3,0.1
			c-2.5,0.5-5.2,1.1-5.7,4c-0.6,3.1,2,4.4,4.3,5.2c9.3,3.2,18.6,6.4,27.9,9.5c4,1.4,7.8,3.1,11.5,5.1c14.6,7.8,13.2,26.4,3.1,34.8
			C394.7,129.5,385.8,132.5,377.9,132.5z"/>
		<path class="st2" d="M468.7,49.4c11.8,0.1,23.4,2.7,32.8,11.3c3.9,3.6,6.8,7.9,6.3,13.6c-0.2,3.1-1.5,5.6-3.7,7.7
			c-6,5.3-18.6,6.2-23.2-3.9c-0.9-2-2.1-3.8-3.2-5.6c-3.8-6-9.9-7.8-16.3-4.7c-7,3.4-10,9.6-11.2,16.8c-0.7,4.2-0.5,8.4,0.7,12.5
			c4.3,15.1,19.5,21.2,33.9,13.5c4.2-2.2,7.7-5.2,10.9-8.6c1.3-1.4,2-1.4,3.3-0.2c3.1,2.7,6.3,5.3,9.5,7.8c0.9,0.7,1.3,1.2,0.4,2.3
			c-18.3,21.2-44.1,25.4-64.8,16.1c-16.9-7.6-26-23.3-24.4-40.2c1.7-17.8,14-31.8,32.1-36.5C457.2,49.9,462.7,49.4,468.7,49.4z"/>
		<path class="st2" d="M809.3,109.1c0,5.3,0,10.1,0,15c0,1.3-0.3,2.1-1.7,2.7c-12.8,5.4-25.8,6.9-39.3,3.1
			c-3.8-1.1-7.2-2.9-10.3-5.4c-5-3.9-7.2-9.1-7.2-15.3c-0.1-12.7-0.2-25.3-0.1-38c0-2.5-0.7-3.2-3.1-3c-3.1,0.2-7.3,1.1-9.1-0.5
			c-2-1.8-0.5-6.1-0.7-9.3c-0.1-1.1,0-2.2,0-3.2c-0.1-1.5,0.3-2.3,1.9-2.8c12.2-4.3,19.2-13.1,21.3-25.9c0.3-1.9,0.9-2.5,2.8-2.5
			c3.9,0.2,7.8,0.2,11.7,0c2.1-0.1,2.5,0.7,2.5,2.6c-0.1,7,0.1,14.1-0.1,21.1c-0.1,3.1,1,3.7,3.8,3.6c7-0.2,14.1,0,21.1-0.1
			c2,0,2.6,0.5,2.6,2.5c-0.2,4-0.1,8,0,12c0.1,2-0.5,2.6-2.5,2.6c-7.4-0.1-14.7,0-22.1-0.1c-2,0-2.8,0.4-2.8,2.6
			c0.2,9.8,0,19.7,0.2,29.6c0.2,10.6,6,15.2,16.7,13.6c2.4-0.4,4.9-1,7.2-1.8C804.5,111.5,806.7,110.3,809.3,109.1z"/>
		<path class="st2" d="M186.1,60.3c3.2-2.5,5.9-4.8,8.8-6.8c4-2.8,8.5-4.4,13.4-4.1c5.8,0.3,10.2,2.9,12.5,8.3
			c2.2,5.2,1.7,10.2-2,14.6c-3.8,4.6-8.9,5-14.2,3.9c-2.2-0.4-4.4-1.2-6.6-1.7c-3-0.8-5.5,0.8-8,1.9c-1,0.5-0.8,1.4-0.8,2.2
			c0,10.5,0,21,0,31.5c0,3.4,1.3,4.6,4.8,4.8c0.2,0,0.4,0,0.6,0c2.2,0.3,5.2-1,6.6,0.5c1.6,1.7,0.5,4.7,0.5,7.2
			c0,2.5,1.2,5.9-0.6,7.4c-1.5,1.2-4.7,0.4-7.2,0.4c-13.9,0-27.7,0-41.6,0.1c-2.3,0-3.3-0.4-3.1-3c0.2-3.4,0.1-6.9,0-10.4
			c0-1.7,0.5-2.3,2.2-2.2c2.1,0.1,4.1,0,6.2,0c2.3,0,3.6-1.3,3.9-3.5c0.1-1.2,0.3-2.4,0.3-3.6c0-11.3,0-22.5,0.1-33.8
			c0-2.1-0.5-2.9-2.7-2.7c-2.7,0.2-5.4,0-8.1,0.1c-1.4,0-1.9-0.5-1.9-1.9c0.1-3.9,0.1-7.8,0-11.7c0-1.6,0.7-1.9,2.1-2
			c8.6-0.6,16.8-2.7,24.8-5.8c2.9-1.1,5.8-0.5,8.7-0.7c1.4-0.1,1.2,0.9,1.2,1.8C186.1,54,186.1,56.9,186.1,60.3z"/>
		<path class="st3" d="M54,391c-11.8,0-24.8-13.9-23.7-30.1c1.2-17.9,14.8-29.4,31.8-27.1c2,0.3,4,0.7,6,1.3
			c1.8,0.6,3.2,2.2,5.5-0.3c1.8-2,5.5-0.1,6.3,2.7c1.3,4.8,2.6,9.6,4,14.4c0.5,1.8,0.5,3.1-1.8,3.4c-0.5,0.1-1.1,0.1-1.6,0.4
			c-2.7,1.5-4.2,0.5-5.4-2.2c-1.3-2.7-3.1-5.2-5.5-7.2c-7.4-6.5-17.6-4.5-21.6,4.4c-3.8,8.4-3,16.7,2.3,24.4
			c4.2,6.1,11.4,7.9,18.1,4.9c4.1-1.8,7.6-4.7,10.3-8.3c1.1-1.5,1.8-1.9,3.5-0.6c4.5,3.4,4.6,3.3,1,7.7C76.7,386.8,68.6,391,54,391z
			"/>
		<path class="st2" d="M265.4,267c-3.8-6.7-10.9-9.6-18.3-7.2c-1.9,0.6-3.7,1.5-6,2.4v-17.1c0-4.2-0.8-4.8-5-3.4
			c-3.1,1.1-6.2,2.4-9.4,2.4c-4.2,0-4.6,2-4.4,5.4c0.1,2,0.3,3.5,2.8,3c2.7-0.5,3.1,0.8,3.1,3.2c-0.1,12.4-0.1,24.9-0.1,37.4
			c0,6.7,0,6.7,6.8,6.6c0.9,0,2.2,0.4,2.6-0.7c1.2-2.9,2.7-1.6,4.4-0.6c7.2,4.1,15,2.9,20.7-3.1C269.1,288.6,270.4,275.6,265.4,267z
			 M252.8,287.9c-1.6,2.9-4.3,4.1-7.4,3.4c-3.2-0.8-4.2-3-4.2-6.1c0-3.6,0.3-7.2-0.1-10.7c-0.4-4,2.3-4.6,4.9-5.5
			c2.9-1,5.1-0.1,6.7,2.4c1.6,2.6,1.9,5.5,1.8,8.4C254.6,282.6,254.2,285.4,252.8,287.9z"/>
		<path class="st2" d="M87.5,263.8c3.8-2.1,7.5-4.3,12-4.7c8.9-0.9,14.4,3.8,14.4,12.7c0,5.5,0.1,11.1,0,16.6c0,2.4,0.9,3.8,3.4,3.4
			c2.1-0.3,3,0.5,2.7,2.6c-0.1,1.1-0.1,2.2,0,3.2c0.1,1.3-0.3,2-1.8,2c-6.6-0.1-13.2-0.1-19.8,0c-1.4,0-2-0.5-1.9-1.9
			c0.1-1.3,0.1-2.6,0-3.9c-0.1-1.5,0.3-2.2,1.9-2.1c2.1,0.2,2.6-1.2,2.6-2.9c0-5.4,0.1-10.8-0.1-16.2c-0.1-3.3-1.6-4.3-5-3.7
			c-5.4,0.9-7.3,3.2-7.3,8.6c0,3.7,0,7.4,0,11.1c0,1.9,0.3,3.6,2.9,3.3c1.3-0.1,1.6,0.4,1.7,1.7c0.6,6.1,0.6,6.1-5.4,6.1
			c-5.1,0-10.2-0.1-15.3,0.1c-2.2,0.1-2.9-0.7-2.6-2.7c0.1-0.9,0.1-1.7,0-2.6c-0.2-1.9,0.3-2.8,2.4-2.5c2.5,0.3,3.5-1.1,3.4-3.5
			c-0.1-5.1-0.1-10.2,0-15.3c0.1-2.4-0.8-3.1-2.9-2.8c-2.5,0.4-3.1-0.6-3-3c0.2-4.7,0-4.6,4.6-5.7c2.2-0.5,4.4-1.1,6.6-1.8
			C86.7,258,87,258.2,87.5,263.8z"/>
		<path class="st2" d="M90.1,173.5c3.8-2.2,7.5-4.3,12-4.8c8.9-0.9,14.4,3.8,14.5,12.7c0.1,5.4,0.1,10.8,0,16.3
			c-0.1,2.7,0.8,4.2,3.7,3.8c2.2-0.3,2.4,0.8,2.4,2.6c0,5.2,0.1,5.2-5,5.2c-5.3,0-10.6-0.1-15.9,0c-2,0-2.8-0.4-2.6-2.5
			c0.1-1.1,0.1-2.2,0-3.2c-0.1-1.4,0.2-2.3,1.9-2.1c2,0.2,2.6-1.2,2.6-2.9c0-5.4,0.1-10.8,0-16.2c-0.1-3.3-1.6-4.3-4.9-3.8
			c-5.3,0.9-7.3,3.2-7.3,8.5c0,3.8,0,7.6,0,11.4c0,1.8,0.5,3.3,2.8,3c1.6-0.2,1.7,0.7,1.7,2c0.3,5.8,0.4,5.8-5.3,5.8
			c-5.1,0-10.2-0.1-15.3,0.1c-2.2,0.1-2.9-0.6-2.6-2.7c0.1-1,0.1-2,0-2.9c-0.1-1.6,0.2-2.5,2.1-2.2c2.8,0.4,3.9-1,3.8-3.8
			c-0.1-5.1-0.1-10.2,0-15.3c0.1-2.1-0.6-2.8-2.6-2.5c-2.7,0.5-3.4-0.6-3.4-3.3c0-3.2,0.3-5.3,4.3-5.4c2.3,0,4.6-1,6.9-1.8
			C89.3,167.7,89.6,167.8,90.1,173.5z"/>
		<path class="st2" d="M456.5,263.7c3.7-2.1,7.3-4.2,11.6-4.7c9.1-1,14.6,3.8,14.6,12.8c0,5.3,0,10.6,0,15.9c0,2.7,0.7,4.5,3.9,4
			c1.7-0.3,2.2,0.5,2.2,2.2c0.1,5.6,0.2,5.6-5.6,5.6c-5.1,0-10.2-0.1-15.3,0.1c-2.2,0.1-2.9-0.6-2.6-2.7c0.1-1.1,0.1-2.2,0-3.2
			c-0.1-1.3,0.2-2.1,1.7-1.9c2.4,0.2,2.9-1.3,2.9-3.3c0-5.2,0-10.4,0-15.6c0-3.3-1.4-4.4-4.7-4c-2.6,0.3-4.6,1.8-6.7,3.1
			c-0.9,0.6-0.8,1.5-0.8,2.3c0,4.9,0,9.7,0,14.6c0,1.5,0.3,3,2.2,2.9c2.3-0.2,2.4,1.1,2.3,2.8c-0.1,0.8-0.1,1.5,0,2.3
			c0.3,2.3-0.5,3-2.8,2.9c-6-0.2-11.9-0.1-17.9,0c-1.9,0-2.9-0.4-2.6-2.5c0.1-1,0.1-2,0-2.9c-0.2-1.7,0.2-2.7,2.2-2.5
			c2.9,0.4,3.7-1.2,3.7-3.9c-0.1-5-0.1-10,0-14.9c0.1-2-0.4-3-2.6-2.8c-1.4,0.1-3.7,0.8-3.2-2c0.4-2.3-2.1-5.9,2.9-6.4
			c2.5-0.2,5.1-1.1,7.5-1.8C455.4,258.1,455.5,258.1,456.5,263.7z"/>
		<path class="st2" d="M212.8,354.1c3.6-2,7.1-4.1,11.3-4.6c9.5-1,14.9,3.5,15.1,13.1c0.1,5.5,0.1,11,0,16.6c0,2.2,0.9,3.3,3.1,3
			c2.5-0.4,3.3,0.6,2.9,3c-0.1,1-0.1,2,0,2.9c0.2,1.7-0.6,1.9-2.1,1.9c-6.5-0.1-13-0.1-19.5,0c-1.5,0-2.2-0.4-2-2
			c0.1-1.2,0.1-2.4,0-3.6c-0.1-1.5,0.1-2.5,2-2.3c2,0.2,2.6-1.1,2.6-2.9c0-5.4,0.1-10.8,0-16.2c-0.1-3.2-1.5-4.2-4.6-3.8
			c-2.6,0.3-4.6,1.7-6.7,3c-0.9,0.5-0.9,1.3-0.9,2.2c0,5,0,10,0,14.9c0,1.6,0.5,2.9,2.4,2.7c2-0.2,2.2,0.7,2.2,2.4
			c0,5.4,0.1,5.4-5.4,5.4c-5.1,0-10.2-0.1-15.3,0c-2.1,0.1-3-0.4-2.7-2.6c0.1-1.1,0.1-2.2,0-3.2c-0.2-1.6,0.5-2.2,2-2
			c3.1,0.4,4-1.2,3.9-4c-0.1-5-0.2-10,0-14.9c0.1-2.2-0.7-2.8-2.7-2.6c-1.3,0.1-3.6,0.8-3.1-1.8c0.5-2.3-2.3-5.9,2.7-6.5
			c2.9-0.4,5.7-1.2,8.5-2.1C211.8,348.4,212.2,348.6,212.8,354.1z"/>
		<path class="st2" d="M463.7,173.7c5.2-3.4,10.4-5.7,16.4-4.8c6.4,1,10,4.9,10.1,11.4c0,5.7,0.1,11.5,0,17.2c0,2.8,0.7,4.5,3.9,4
			c1.7-0.3,2.1,0.5,2.2,2.2c0.1,5.6,0.2,5.6-5.5,5.6c-5.1,0-10.2-0.1-15.3,0c-2.1,0.1-3-0.5-2.7-2.7c0.1-1.1,0.1-2.2,0-3.2
			c-0.1-1.3,0.2-2.1,1.7-2c2.4,0.2,2.9-1.1,2.9-3.2c-0.1-5.4,0-10.8,0-16.2c0-2.7-1.5-3.7-3.9-3.6c-5.1,0.1-8.2,3.4-8.2,8.4
			c0,3.9,0,7.8,0,11.7c0,1.6,0.3,3.2,2.5,3c1.7-0.2,2,0.7,1.9,2.1c-0.1,1.1-0.1,2.2,0,3.2c0.3,2-0.5,2.6-2.5,2.5
			c-5.9-0.1-11.9-0.1-17.9,0c-2.1,0-3-0.5-2.7-2.7c0.1-1.1,0.1-2.2,0-3.2c-0.2-1.6,0.5-2.1,2-2c3.1,0.4,3.9-1.4,3.9-4.1
			c-0.1-5-0.1-10,0-14.9c0.1-2-0.6-2.9-2.6-2.5c-3.2,0.6-3.3-1.1-3.4-3.6c-0.2-3.3,0.6-4.9,4.2-5c2.4-0.1,4.8-1.1,7.2-1.9
			C463,167.6,463.4,167.9,463.7,173.7z"/>
		<path class="st2" d="M145.3,173.6c4-2.5,7.8-4.5,12.3-4.9c8.8-0.8,14.1,3.9,14.2,12.7c0.1,5.5,0.1,11,0,16.6
			c0,2.4,0.7,3.9,3.3,3.5c2.4-0.3,3.1,0.7,2.8,2.9c-0.1,1-0.1,2,0,2.9c0.1,1.5-0.4,2.1-2,2c-6.5-0.1-13-0.1-19.5,0
			c-1.7,0-2-0.7-1.9-2.1c0.1-1.2,0.1-2.4,0-3.6c-0.1-1.4,0.1-2.3,1.9-2.2c2.1,0.2,2.6-1.2,2.6-2.9c0-5.5,0-11-0.1-16.6
			c0-3-1.9-3.9-4.6-3.5c-2.5,0.3-4.6,1.7-6.7,3.1c-1,0.7-1,1.6-1,2.6c0,4.7,0,9.3,0,14c0,1.5-0.1,3.2,2.1,3.4c5,0.4,1.7,4.1,2.3,6.2
			c0.7,2.4-1.7,1.6-2.8,1.6c-5.8,0.1-11.7,0-17.5,0.1c-2.1,0-3-0.4-2.7-2.6c0.2-1.1,0.1-2.2,0-3.2c-0.2-1.6,0.5-2.2,2-2
			c3.1,0.4,4-1.2,3.9-4c-0.1-4.9-0.1-9.7,0-14.6c0.1-2.2-0.5-3.3-2.8-2.9c-2.7,0.5-3-0.9-3.2-3.2c-0.3-3.6,0.6-5.3,4.5-5.5
			c2.3-0.1,4.6-1.1,6.9-1.8C144.5,167.7,144.9,167.9,145.3,173.6z"/>
		<path class="st2" d="M203.9,295.7c-4.4,2.3-7.8,4.3-11.9,4.8c-7.9,1-15.9-2.8-15.2-13.3c0.3-5.2,0-10.4,0.1-15.6
			c0-2.7-1-4.2-3.8-3.8c-1.8,0.2-2.1-0.5-2.2-2.2c-0.1-5.7-0.2-5.7,5.5-5.8c3.5,0,6.9,0,10.4-0.3c2.4-0.2,2.9,0.8,2.9,3
			c-0.1,7.4-0.1,14.7,0,22.1c0,2.5-0.5,5.5,3,6.4c2.2,0.6,8.4-2.1,9.3-3.9c0.3-0.5,0.2-1.3,0.2-1.9c0-4.4,0-8.9,0-13.3
			c0-2.8-0.9-4.5-3.9-4.1c-1.6,0.2-2-0.5-2-2c0.3-7-1.4-5.6,5.7-5.9c3.6-0.1,7.1-0.1,10.7-0.3c2-0.1,2.6,0.6,2.5,2.6
			c-0.1,8.6,0.1,17.1-0.1,25.7c0,2.9,0.7,4.4,3.8,4c1.8-0.3,2.1,0.6,2.2,2.2c0.1,5.4,0.2,5.4-5.2,5.7c-2.9,0.2-5.8,0.2-8.7,0.5
			C204.3,300.4,202.4,300,203.9,295.7z"/>
		<path class="st2" d="M172.8,385.9c-5.2,3.4-9.7,5.3-14.9,5.1c-7.1-0.3-11.4-4-11.9-11.1c-0.4-5.9-0.3-11.9-0.2-17.9
			c0-2.7-0.7-4.2-3.7-3.9c-2,0.3-2.5-0.7-2.3-2.4c0.1-0.5,0.1-1.1,0-1.6c-0.6-3.2,0.8-4,3.8-3.9c4.2,0.2,8.4,0,12.7-0.2
			c1.9-0.1,2.3,0.6,2.3,2.4c-0.1,7.8-0.1,15.6,0,23.4c0,5.2,2.5,6.8,7.3,5c4.5-1.8,5.2-2.7,5.2-7.6c0-3.8,0-7.6,0-11.4
			c0-2.4-0.8-3.9-3.4-3.6c-2,0.2-2.8-0.5-2.5-2.5c0.1-1,0.1-2,0-2.9c-0.2-1.8,0.4-2.5,2.3-2.4c4.7,0,9.3-0.1,14-0.3
			c2.2-0.1,2.7,0.7,2.7,2.8c-0.1,8.6,0,17.1-0.1,25.7c0,2.7,0.8,4.2,3.7,3.8c2-0.3,2.2,0.8,2.2,2.4c0,5.2,0.1,5.2-5,5.5
			c-2.8,0.2-5.6,0.2-8.4,0.4C173.9,390.7,171.3,390.8,172.8,385.9z"/>
		<path class="st2" d="M113.2,349.3c-10.4-0.2-19,5.2-21.5,13.9c-4.1,14,3.5,28,21.2,27.8c10.5,0,18.3-4.9,21.1-13.5
			C139,362.6,129.4,349.6,113.2,349.3z M119.7,377.5c-1.5,2.9-3.7,4.8-7.1,4.7c-3.4-0.1-5.6-2-6.8-5.1c-1.6-4.1-1.6-8.2-0.5-12.4
			c1.1-4.1,4.2-6.6,7.8-6.6c3.4,0.1,6.1,2.6,7.3,6.7c0.5,1.8,0.5,3.6,0.6,4.9C121.1,372.8,120.8,375.3,119.7,377.5z"/>
		<path class="st2" d="M438.2,180.4c-3.6-8.4-11-11.5-19.7-11.8c-10.4-0.4-19.2,5-21.9,13.4c-4.2,13.3,2.5,28.3,20,28.2
			c7.9,0,14.2-1.7,18.7-7.2C440.9,196.1,441.6,188.3,438.2,180.4z M422.9,199.2c-3.6,3.6-9.1,3.1-11.5-1.4
			c-2.8-5.3-2.7-10.8-0.2-16.2c1.3-2.7,3.7-4.2,6.8-4.1c3.1,0.1,5.2,1.9,6.5,4.6c1.2,2.4,1.5,4.9,1.4,7.1
			C425.9,193.1,425.5,196.5,422.9,199.2z"/>
		<path class="st2" d="M204.9,168.6c-13.1-0.1-22.1,8.3-22.2,20.6c-0.1,13,8.5,21.1,22.2,21.1c13.5,0,22.2-8.1,22.2-20.8
			C227.1,176.8,218.4,168.7,204.9,168.6z M212.1,195.9c-1.3,3.6-4.2,5.7-7.5,5.6c-3.3-0.1-6-2.2-7.1-6c-0.6-2-0.8-4-1-5.6
			c0.3-3,0.4-5.6,1.7-7.9c1.5-2.8,3.8-4.4,7-4.4c3.3,0,5.5,1.9,6.7,4.8C213.6,186.8,213.7,191.4,212.1,195.9z"/>
		<path class="st2" d="M410.2,259c-13.2,0-22.1,8.3-22.1,20.6c0,13.1,8.4,21,22.2,21c13.5,0,22.2-8.2,22.2-20.9
			C432.5,267.2,423.7,259,410.2,259z M416.1,288.8c-3.6,4.6-9.9,4.1-12.5-1.1c-2.4-4.9-2.4-10-0.3-15c1.3-3,3.7-4.8,7.1-4.8
			c3.4,0,5.6,2.1,6.9,5.1c1,2.2,1.1,4.6,1.1,7C418.4,283,418.1,286.2,416.1,288.8z"/>
		<path class="st2" d="M317.2,294c0-1.7-0.2-2.5-2.3-2.2c-2.8,0.5-4.3-0.9-4.2-3.8c0-2.7,0-5.4,0-8.1c0-2.7,0.1-5.4,0-8.1
			c-0.1-6.2-2.3-9.5-8.2-11.4c-7.1-2.3-14.1-1.8-20.8,1.6c-2,1.1-3.8,2.4-4.9,4.6c-1.7,3.3-0.8,6.9,2.1,8.5c3,1.6,6.5,0.5,8.4-2.6
			c0.4-0.7,0.7-1.6,1.2-2.3c1.4-2.7,3.9-3.8,6.8-2.9c3.5,1.1,2.9,4.1,3.1,6.7c0.2,2.7-2,1.7-3.2,1.9c-4.7,0.8-9.4,1.4-13.9,3.2
			c-5.5,2.3-8.3,7.1-7.3,12.3c1,5.1,5.6,8.7,11.3,9c4.7,0.3,8.9-1.2,12.9-3.5c1.1-0.6,1.8-1.1,3,0.1c2.6,2.8,6.1,3.5,9.8,3.4
			C317,300.2,317.3,299.8,317.2,294z M298.2,285.6c0.6,2.5-0.1,3.9-2.1,4.7c-2.4,1-4.8,2.2-7.4,0.5c-2.2-1.5-1.9-4.6,0.6-6.2
			c2.3-1.5,5-2,7.7-2.1C299.7,282.6,297.6,285,298.2,285.6z"/>
		<path class="st2" d="M324.6,203c-0.1-1.5-0.5-1.7-1.9-1.6c-3.5,0.3-4.5-0.8-4.6-4.2c-0.1-2.9,0-5.9,0-8.8c0-2.6,0-5.2,0-7.8
			c0.1-5.2-2.5-8.5-7.2-10.4c-5.1-2-10.3-2-15.6-0.9c-4.1,0.9-7.9,2.5-10.4,6c-1.6,2.3-2,4.8-0.4,7.3c1.3,2.2,3.5,2.7,5.9,2.5
			c3-0.4,4.3-2.6,5.4-5c1.5-3.1,3.7-4.2,6.8-3.5c3.7,0.9,3,3.9,3.2,6.5c0.2,2.9-2,1.9-3.3,2.1c-4.7,0.7-9.4,1.4-13.8,3.3
			c-5.5,2.3-8,6.9-7,12.5c0.8,4.7,5.6,8.5,11.1,8.8c4.7,0.3,9-1.1,12.9-3.5c1.3-0.8,2-0.9,3.2,0.3c2.5,2.5,5.7,3.3,9.2,3.2
			C324.4,209.8,325,209.2,324.6,203z M303.5,200c-2.4,0.9-4.8,2.2-7.3,0.5c-2.3-1.5-2-4.4,0.6-6.1c2.3-1.5,5-1.9,7.7-2.1
			c1.3-0.1,1.3,0,1.3,3.8C306,197.7,305.6,199.2,303.5,200z"/>
		<path class="st2" d="M256.3,195.9c2.4-5.6,4.4-10.5,6.4-15.3c0.9-2.1,0-3.3-2.1-3.1c-2.6,0.3-3.3-0.8-2.9-3.1c0.1-1,0.1-2,0-2.9
			c-0.1-1.4,0.4-1.9,1.8-1.9c5.8,0.1,11.7,0.1,17.5,0c1.3,0,2,0.3,1.9,1.8c-0.1,1.5,0,3,0,4.5c0,0.8-0.1,1.5-1.2,1.5
			c-3.1-0.1-4.2,2.1-5.3,4.5c-3.7,8.3-7.5,16.5-11.2,24.8c-0.8,1.9-1.9,2.4-4,2.8c-6.4,1-9.6-1.5-11.8-7.5
			c-2.5-7.1-6.2-13.8-9.3-20.6c-0.9-2.1-2-3.9-4.7-3.8c-1.2,0-1.3-0.6-1.4-1.6c-0.6-6.2-0.6-6.2,5.6-6.2c5.4,0,10.8,0.1,16.2,0
			c2,0,3.1,0.4,2.8,2.6c-0.1,0.8-0.1,1.7,0,2.6c0.2,1.7-0.1,2.9-2.3,2.7c-1.6-0.2-3,0.6-2.3,2.5C251.8,185,253.9,190.1,256.3,195.9z
			"/>
		<path class="st2" d="M269.4,391c-10.3,0-20-9.4-19.6-21.2c0.5-12.7,11.1-21.5,24.7-20.4c6.2,0.5,11.7,2.3,15.4,7.7
			c3.1,4.6,0.9,9.6-4.5,10.5c-2.7,0.4-4.9-0.5-6.4-2.8c-0.6-1-1.1-2.1-1.7-3.1c-2.3-4.1-6.6-4.8-9.9-1.5c-5.1,5-4.3,15.6,1.4,19.7
			c3.9,2.9,9.3,2.3,13.7-1.4c4.3-3.6,4.3-3.6,8.4,0.5c1,1,1,1.5,0.1,2.6C285.8,387.3,279.6,391,269.4,391z"/>
		<path class="st2" d="M124.8,279.8c0.1-11.9,9.1-20.5,21.9-20.8c6.5-0.2,12.5,1.3,17,6.4c4.2,4.7,2.6,10.6-3.2,11.8
			c-2.9,0.6-5.1-0.4-6.7-2.8c-0.5-0.8-0.9-1.7-1.4-2.6c-1.1-2.2-2.4-4.1-5.3-4.1c-2.9,0.1-5,1.5-6.3,3.9c-2.6,4.8-2.7,9.8,0,14.6
			c3.1,5.6,9.5,6.7,15.1,3c0.5-0.4,1.1-0.7,1.6-1.2c4.2-3.4,4.4-3.4,8.3,0.7c0.9,0.9,0.8,1.4,0.1,2.4c-7.7,10.8-24.3,12.9-34.3,4.2
			C126.9,291.2,124.7,286,124.8,279.8z"/>
		<path class="st3" d="M53,153.9c3.7,0,7.4,0.1,11,0c1.7-0.1,2.7,0.3,2.4,2.3c-0.1,1.1-0.1,2.2,0,3.2c0.2,1.9-0.6,2.5-2.4,2.3
			c-3.3-0.4-4.3,1.4-4.3,4.5c0.1,10.3,0.1,20.6,0,30.8c0,3.1,1,4.8,4.3,4.4c2.2-0.3,2.4,0.9,2.4,2.6c0,5.2,0.1,5.2-5,5.2
			c-6.5,0-13-0.1-19.5,0c-2.1,0-3-0.6-2.7-2.7c0.1-0.8,0.1-1.7,0-2.6c-0.2-1.9,0.3-2.9,2.4-2.6c3.2,0.5,4.3-1.3,4.3-4.2
			c0-10.4,0-20.8,0-31.2c0-2.9-1.1-4.8-4.4-4.4c-1.6,0.2-2.5-0.4-2.3-2.1c0.1-0.9,0.1-1.7,0-2.6c-0.5-2.7,0.9-3.2,3.3-3.1
			C46.1,154,49.6,153.9,53,153.9z"/>
		<path class="st3" d="M50.3,299.6c-3.7,0-7.4-0.1-11,0c-2.1,0.1-2.7-0.6-2.5-2.6c0.1-1,0.1-2,0-2.9c-0.2-1.8,0.4-2.4,2.3-2.4
			c3.7,0,4.4-0.7,4.4-4.7c0-10.1,0-20.1,0-30.2c0-4-0.6-4.7-4.6-4.8c-1.5-0.1-2.2-0.5-2.1-2.1c0.1-0.9,0.1-1.7,0-2.6
			c-0.4-2.5,0.5-3.3,3.1-3.3c7,0.2,14.1,0.2,21.1,0c2.2,0,3.2,0.5,2.9,2.8c-0.2,1.1-0.1,2.2,0,3.2c0.1,1.5-0.6,1.8-1.9,1.8
			c-4.4,0.3-4.7,0.6-4.7,5c0,10.2,0.1,20.3,0,30.5c0,3,1.1,4.6,4.2,4.2c2-0.2,2.7,0.5,2.5,2.5c-0.1,1.1-0.1,2.2,0,3.2
			c0.2,1.8-0.7,2.1-2.2,2.1C57.9,299.6,54.1,299.6,50.3,299.6z"/>
		<path class="st2" d="M326.5,279.5c0-2.8-0.1-5.6,0-8.4c0.1-2-0.5-2.9-2.5-2.5c-2.6,0.5-3.5-0.5-3.5-3.3c0-3,0.5-4.8,3.5-6.2
			c4.2-1.9,6.3-5.8,7.1-10.3c0.8-4.6,4.4-2,6.7-2.3c2.8-0.4,1.4,2.1,1.5,3.2c0.2,2.6,0.2,5.2,0,7.8c-0.1,1.9,0.3,2.7,2.5,2.6
			c2.8-0.2,5.6,0,8.4-0.1c1.5,0,2,0.4,2.1,2c0.3,6.6,0.4,6.6-6.3,6.6c-6.7,0-6.7,0-6.7,6.7c0,3-0.1,6.1,0,9.1c0.1,5.4,2,7.1,7.4,6.9
			c1.4-0.1,2.9-0.3,4-1c3.4-2.1,3.2-0.1,3.2,2.3c-0.1,5.3,0,5.3-5.2,6.8c-3.5,1-7.1,1.2-10.6,0.7c-7.8-0.9-11.7-5.4-11.8-13.2
			C326.5,284.5,326.5,282,326.5,279.5z"/>
		<path class="st2" d="M361.5,198.5c0,2.6-0.1,4.9,0,7.1c0.1,1.2-0.5,1.7-1.5,2.1c-5.7,2.5-11.5,3-17.4,1.4
			c-5.6-1.6-8.4-5.3-8.5-11.2c-0.1-5.6-0.1-11.3,0-16.9c0.1-2.3-0.7-3.2-2.9-2.8c-2.8,0.5-3-1-3.1-3.3c-0.1-3,0.4-4.8,3.5-6.2
			c4.1-2,6.3-5.9,7-10.4c0.3-2,1-2.6,2.9-2.4c1,0.1,2,0.1,2.9,0c2.1-0.3,2.6,0.6,2.5,2.5c-0.2,2.9,0.1,5.9-0.1,8.8
			c-0.1,1.8,0.4,2.5,2.3,2.4c2.8-0.2,5.6,0,8.4-0.1c1.5-0.1,2,0.4,2.1,2c0.3,6.6,0.4,6.6-6.2,6.6c-6.6,0-6.7,0-6.6,6.6
			c0,3.6,0,7.1,0.2,10.7c0.2,3.8,2,5.3,5.7,5.5C355.9,201.1,358.5,199.9,361.5,198.5z"/>
		<path class="st2" d="M344.1,356.3c0,7,0,14.1,0,21.1c0,3,0.5,5.3,4.3,4.8c1.5-0.2,1.8,0.5,1.8,1.9c0.4,5.9,0.4,5.9-5.6,5.9
			c-5.3,0-10.6-0.2-15.9,0.1c-2.9,0.1-3.6-0.9-3.2-3.4c0.1-0.7,0.1-1.5,0-2.3c-0.2-1.7,0.5-2.4,2.2-2.2c2.9,0.4,3.7-1.2,3.7-3.9
			c-0.1-10.9-0.1-21.9,0-32.8c0-2.2-0.7-2.9-2.8-2.7c-1.6,0.2-3.7,0.4-3-2.2c0.5-2.1-2.1-5.6,2.6-5.9c3.8-0.2,7.4-1.5,11-2.6
			c4.3-1.4,4.9-0.9,4.9,3.4C344.1,342.4,344.1,349.3,344.1,356.3z"/>
		<path class="st2" d="M377.7,275c0,4.5,0.1,9.1,0,13.6c-0.1,2.4,0.9,3.5,3.2,3.2c2.3-0.3,3.1,0.6,2.8,2.8c-0.1,1-0.1,2,0,2.9
			c0.2,1.8-0.6,2.1-2.2,2.1c-6.7-0.1-13.4-0.1-20.1,0c-1.7,0-2.7-0.3-2.4-2.3c0.1-0.8,0.1-1.7,0-2.6c-0.4-2.4,0.4-3.4,2.9-3
			c2,0.3,3-0.8,2.9-2.8c0-5.6-0.1-11.3,0-16.9c0.1-2.4-1.3-1.9-2.7-2c-1.4-0.1-3.7,0.8-3.2-2c0.4-2.1-2-5.6,2.9-5.8
			c3.8-0.1,7.4-1.2,11-2.7c3.7-1.6,4.9-0.7,4.9,3.2C377.7,266.7,377.7,270.9,377.7,275z"/>
		<path class="st2" d="M315.9,365.5c0,4.4,0.1,8.9,0,13.3c-0.1,2.5,0.8,3.7,3.4,3.4c2.2-0.3,2.9,0.5,2.6,2.6c-0.1,1.2-0.1,2.4,0,3.6
			c0.1,1.3-0.5,1.6-1.7,1.6c-7,0-14.1-0.1-21.1,0c-1.7,0-2.1-0.6-1.9-2.1c0.1-0.6,0.1-1.3,0-1.9c-0.3-2.6,0-4.4,3.4-3.9
			c1.8,0.3,2.5-0.9,2.5-2.6c0-5.7-0.1-11.5,0-17.2c0.1-2.4-1.5-1.7-2.8-1.9c-1.3-0.2-3.6,0.8-3-1.9c0.4-2.1-2.3-5.7,2.7-6
			c3.9-0.2,7.6-1.2,11.3-2.8c3.6-1.5,4.7-0.6,4.7,3.4C315.9,357.3,315.9,361.4,315.9,365.5z"/>
		<path class="st2" d="M385,184.5c0,4.4,0.1,8.9,0,13.3c-0.1,2.6,0.8,4,3.6,3.6c2-0.3,2.8,0.4,2.5,2.5c-0.1,1-0.1,2,0,2.9
			c0.3,2.1-0.6,2.5-2.6,2.5c-6.5-0.1-13-0.1-19.5,0c-2.1,0-3-0.5-2.7-2.7c0.1-1,0.1-2,0-2.9c-0.1-1.6,0.2-2.5,2.1-2.3
			c3.1,0.5,3.9-1.2,3.8-4c-0.1-5.1-0.1-10.2,0-15.3c0-2-0.6-2.7-2.6-2.6c-1.4,0.1-3.7,0.8-3.3-2c0.3-2.2-1.8-5.6,3-5.8
			c3.8-0.1,7.4-1.3,11-2.7c3.6-1.5,4.6-0.7,4.6,3.1C385,176.3,385,180.4,385,184.5z"/>
		<path class="st2" d="M269.2,429.5c0-2.1-0.1-4.1,0-6.2c0.2-2.2,2.1-3.1,3.6-1.5c1,1.1,1.5,0.8,2.5,0.2c2.3-1.4,4.8-1.5,6.9,0.3
			c1.1,0.9,1.7,0.6,2.7,0c4.7-2.8,9-0.7,9.3,4.7c0.2,2.9,0.1,5.8,0,8.7c0,1.4-0.7,2.5-2.4,2.4c-1.6-0.1-2.3-1.1-2.3-2.6
			c-0.1-2.6,0-5.2,0-7.8c0-1.6-0.1-3.3-2.2-3.2c-1.8,0.1-2.9,1.3-3,3.2c-0.1,2.3,0,4.5-0.1,6.8c0,1.7-0.2,3.4-2.4,3.5
			c-2.4,0.1-2.4-1.8-2.4-3.4c-0.1-2.5,0-5-0.1-7.5c0-1.3-0.3-2.7-2.1-2.7c-1.4,0-2.4,0.6-2.9,2.1c-0.9,2.7-0.3,5.4-0.4,8
			c-0.1,1.7-0.1,3.5-2.4,3.4c-2.3,0-2.3-1.8-2.3-3.5C269.1,432.9,269.1,431.2,269.2,429.5C269.1,429.5,269.1,429.5,269.2,429.5z"/>
		<path class="st2" d="M533.1,429.4c0-2.1-0.1-4.1,0-6.2c0.2-2.2,2.1-3.1,3.6-1.5c1.1,1.2,1.5,0.8,2.5,0.2c2.3-1.3,4.8-1.5,6.9,0.3
			c1.2,1,1.7,0.5,2.7-0.1c4.7-2.8,8.9-0.6,9.2,4.8c0.2,2.9,0.1,5.8,0,8.7c0,1.4-0.7,2.5-2.4,2.4c-1.6-0.1-2.3-1.1-2.3-2.6
			c-0.1-2.6,0-5.2,0-7.8c0-1.6-0.2-3.3-2.2-3.2c-1.8,0.1-2.9,1.3-3,3.2c0,2.3,0,4.5-0.1,6.8c0,1.7-0.2,3.4-2.4,3.5
			c-2.4,0.1-2.3-1.9-2.4-3.4c-0.1-2.5,0-5-0.1-7.5c0-1.2-0.3-2.5-1.8-2.7c-1.6-0.2-2.6,0.5-3.2,2.1c-0.9,2.7-0.3,5.4-0.4,8
			c-0.1,1.7-0.1,3.4-2.4,3.4c-2.3,0-2.3-1.8-2.3-3.5C533.1,432.9,533.1,431.2,533.1,429.4C533.1,429.4,533.1,429.4,533.1,429.4z"/>
		<path class="st2" d="M79.2,438.1c-3.7,0.1-6.9-1-8.7-4.4c-0.7-1.3-1.1-3.1,0.6-4c1.7-0.8,2.7,0.2,3.5,1.8c1.7,3.3,4.2,4.1,7.2,2.6
			c1.2-0.6,2-1.4,2-2.7c0-1.3-0.8-2.2-2.1-2.6c-2-0.6-4.1-1.2-6.2-1.8c-3-0.9-5.2-2.7-5.2-6.2c0-2.9,2.2-5.4,5.8-6
			c3.7-0.7,7.4-0.7,10.2,2.4c1.3,1.4,2.3,3.2,0.3,4.8c-2,1.6-2.8-0.3-3.6-1.7c-0.8-1.4-2-2.2-3.6-2.3c-1.8,0-3.8,0.3-4.2,2.2
			c-0.5,2.1,1.5,2.5,3.1,2.9c1.5,0.4,3.1,0.8,4.7,1.3c4.5,1.4,6.1,3.6,5.7,7.4c-0.4,3.4-3.2,5.8-7.1,6.3
			C80.7,438.2,79.9,438.1,79.2,438.1z"/>
		<path class="st2" d="M236.2,438.2c-4.9,0-8.5-2.5-10.2-7c-2-5.2-0.8-10.8,2.9-14c3.5-2.9,9-3.5,13-1.2c1.9,1.1,3.5,2.5,4,4.8
			c0.3,1.2,0,2.2-1.1,2.8c-1.2,0.7-2.1,0-2.8-0.9c-0.8-1.1-1.5-2.4-2.7-3.2c-2.5-1.5-5.7-0.9-7.5,1.5c-2.3,2.9-2.1,9,0.3,11.5
			c2,2,5.4,2.3,7.7,0.6c1.1-0.8,1.6-2,2.2-3.2c0.6-1.1,1.5-2,2.9-1.3c1.1,0.6,1.6,1.5,1.2,3C245.2,435.5,241.3,438.2,236.2,438.2z"
			/>
		<path class="st2" d="M499.6,438.2c-5,0-8.5-2.4-10.2-6.9c-2-5.2-0.8-10.8,2.9-14c3.5-3,8.9-3.5,13-1.3c1.8,1,3.3,2.4,3.9,4.5
			c0.4,1.2,0.3,2.4-1,3.1c-1.4,0.8-2.2-0.1-3-1.1c-0.5-0.7-1-1.4-1.5-2.1c-0.7-0.9-1.7-1.3-2.8-1.6c-3-0.7-5.8,1.1-6.9,4.4
			c-1.5,4.4,0,9.1,3.2,10.4c3.2,1.3,5.9,0.3,7.7-3.1c0.7-1.3,1.4-2.7,3.1-1.9c1.8,0.8,1.6,2.3,1,3.9
			C507.8,436,504.2,438.2,499.6,438.2z"/>
		<path class="st2" d="M210.3,425.4c3.1-3.6,3.4-6.6,0.8-8.9c-3-2.7-8.8-2.6-11.5,0.3c-2.6,2.8-2.4,5.4,0.8,8.6
			c-3.3,2.6-4.1,4.8-2.9,8c1.2,3.3,4,4.8,8.6,4.7c3.8-0.1,6.4-1.9,7.4-5.1C214.4,429.8,213.6,427.7,210.3,425.4z M205.2,418
			c1.9-0.1,3,0.9,3.4,2.7c-0.3,1.8-1.4,2.9-3.2,2.9c-1.6,0-3-0.7-3.1-2.6C202.1,419.1,203.4,418.2,205.2,418z M205.5,434.7
			c-2.4,0-3.7-1.5-3.9-3.9c0.3-2.2,1.4-3.6,3.7-3.6c2.4,0,3.9,1.4,3.8,3.9C209.1,433.2,207.8,434.7,205.5,434.7z"/>
		<path class="st2" d="M403.2,424.1c0,1.2-0.1,2.4,0,3.6c0.8,8.9-5.8,11.8-13.4,10.1c-4.1-0.9-6.1-3.4-6.2-7.6
			c-0.1-4.2,0-8.4-0.1-12.7c0-1.6,0.4-2.8,2.2-2.9c2.1-0.1,2.6,1.2,2.6,2.9c0,3.7,0,7.4,0,11c0.1,2.8,0.8,5.2,4.2,5.5
			c3.6,0.4,5.6-1.3,5.7-5.3c0.1-3.5,0-6.9,0-10.4c0-1.7-0.2-3.8,2.3-3.8c2.8-0.1,2.5,2.1,2.5,3.9
			C403.2,420.4,403.2,422.3,403.2,424.1z"/>
		<path class="st2" d="M58.7,434.8c-2.5-6.1-4.8-12.2-7.5-18.2c-1.3-2.9-5-2.9-6.3,0.1c-2.7,6-5,12.2-7.5,18.2
			c-0.7,1.6,0.2,2.6,1.5,3.1c1.3,0.5,2.3,0,2.8-1.4c0.2-0.6,0.6-1.2,0.7-1.8c0.4-2,1.5-2.6,3.6-2.6c3.8,0,7.6-0.7,8.5,4.6
			c0.2,1.2,1.5,1.5,2.7,1.2c1.2-0.3,1.7-1.2,1.8-2.4C59,435.4,58.9,435.1,58.7,434.8z M44.8,428.8c1-2.9,1.9-5.6,3.1-9.1
			c1.2,3.4,2.3,6.1,3.4,9.1H44.8z"/>
		<path class="st2" d="M695.5,435.3c-2.8-6.3-4.9-13.2-8.4-19.5c-1.1-2-4.6-1.5-5.6,0.8c-2.7,6.1-5.1,12.3-7.6,18.5
			c-0.6,1.4,0.2,2.4,1.3,2.9c1.2,0.6,2.3,0.2,2.9-1.1c0.5-1.1,1-2.2,1.3-3.3c0.3-0.9,0.7-1.3,1.6-1.2c2.6,0,5.3-0.3,7.7,0.2
			c1.4,0.3,1.2,2.8,2.2,4.1c0.2,0.3,0.3,0.6,0.5,0.8c0.7,0.9,1.7,0.9,2.7,0.5C695,437.5,695.6,436.7,695.5,435.3z M681.3,428.8
			c1-2.9,1.9-5.6,3-8.7c1.7,2.9,2.3,5.9,3.5,8.7H681.3z"/>
		<path class="st2" d="M313.2,423.7c-2.4-2.9-5.8-3.5-9.5-1.3c-0.9,0.6-1.4,0.7-1.9-0.4c-0.5-1.1-1.5-1.2-2.5-0.9
			c-1.1,0.3-1.4,1.3-1.4,2.3c0,6.3,0,12.5,0,18.8c0,1.2,0.4,2.3,2,2.4c1.6,0,2.2-1,2.3-2.2c0.2-1.9,0-3.9,0-6.3
			c0.6,0.3,0.9,0.4,1.2,0.6c3.5,2.2,7.2,1.8,9.6-1C315.7,432.7,315.8,426.8,313.2,423.7z M306.7,434.8c-2.4,0.1-4.2-2.2-4.2-5.1
			c0-3,1.8-5.2,4.2-5.1c2.2,0.1,3.8,2.2,3.8,5.1C310.5,432.5,308.9,434.7,306.7,434.8z"/>
		<path class="st2" d="M577.3,423.9c-2.4-3.1-5.7-3.7-9.7-1.4c-1.1,0.6-1.4,0.4-1.9-0.5c-0.6-1-1.6-1.1-2.6-0.8
			c-1.1,0.4-1.4,1.3-1.4,2.3c0,6.2,0,12.3,0,18.5c0,1.4,0.4,2.6,2.2,2.6c1.7,0,2.2-1.3,2.3-2.6c0.1-1.8,0-3.7,0-5.6
			c0.5,0,0.6,0,0.7,0c3.9,2.5,7.4,2.3,9.9-0.5C579.5,433,579.8,427,577.3,423.9z M570.5,434.8c-2.3,0-4.2-2.3-4.1-5.2
			c0-3,1.9-5.2,4.3-5c2.2,0.1,3.8,2.3,3.8,5.2C574.4,432.6,572.8,434.7,570.5,434.8z"/>
		<path class="st2" d="M771.2,418.6c-1.6-2.8-3.9-4.2-7.2-4c-3.1,0.1-5.5,1.5-6.6,4.4c-1.8,4.8-2.1,9.7,0,14.5
			c1.3,3,3.7,4.7,7.1,4.7c3.5,0,5.7-1.8,7.1-4.7c1.1-2.2,1.1-4.6,1.1-7.3C772.6,423.8,772.7,421.1,771.2,418.6z M767.5,432.1
			c-0.3,1.4-1.2,2.6-2.9,2.6c-1.8,0.1-2.8-1.2-3.2-2.7c-1-3.7-0.9-7.5,0-11.2c0.4-1.6,1.3-2.8,3.1-2.8c1.8,0,2.7,1.3,3.1,2.8
			c0.4,1.9,0.5,3.8,0.7,5.8C768,428.5,767.9,430.3,767.5,432.1z"/>
		<path class="st2" d="M443.5,417.3c0-1.4-0.2-2.6-2-2.7c-1.7-0.1-2.2,1.1-2.3,2.5c-0.1,1.8,0,3.6,0,5.5c-0.6,0-0.8,0-1-0.1
			c-4.4-2.2-7.9-1.8-10.2,1.1c-2.3,3-2.2,8.8,0.1,11.9c2.4,3.1,5.2,3.5,9.7,1.2c0.9-0.5,1.2-0.5,1.6,0.4c0.5,1,1.5,1.2,2.5,0.9
			c1.3-0.4,1.4-1.4,1.4-2.6C443.5,429.4,443.5,423.4,443.5,417.3z M435,434.8c-2.4,0-4-2-4-5.2c0-3,1.6-5,3.8-5c2.4,0,4,2.2,4,5.3
			C438.9,432.7,437.3,434.7,435,434.8z"/>
		<path class="st2" d="M742.8,434.1c3.1,0,5.6,0,8,0c1.5,0,2.7,0.4,2.7,2.1c0,1.7-1.3,2-2.7,2c-3.5,0-6.9,0-10.4,0
			c-1.2,0-2.5,0.1-3.1-1.3c-0.5-1.3-0.2-2.6,0.7-3.7c2-2.3,4.1-4.4,6.6-6.2c1.3-1,2.7-2,3.3-3.5c0.9-1.9,1-3.8-1.3-5
			c-2.1-1.1-3.7-0.3-4.8,1.7c-0.9,1.6-1.5,4.5-3.9,2.6c-1.9-1.5-0.6-3.8,0.8-5.4c2.8-3.4,9.5-3.7,12.6-0.6c2.9,2.9,2.4,7.5-1.2,10.9
			C747.8,429.6,745.2,431.2,742.8,434.1z"/>
		<path class="st2" d="M802.7,438.2c-3.6,0-6.5-2-7.7-4.9c-0.6-1.4-0.5-2.6,1-3.3c1.4-0.8,2.2,0.1,2.7,1.3c0.3,0.6,0.6,1.2,0.9,1.7
			c1.1,1.6,2.6,2.2,4.5,1.4c1.8-0.8,2.5-2.2,2.3-4.2c-0.2-2.1-1.5-3-3.5-3.1c-0.3,0-0.6,0-1,0c-1.3,0.1-2.9,0.2-2.9-1.7
			c0-1.5,1.3-1.8,2.6-1.8c0.5,0,1.1,0,1.6-0.2c1.1-0.5,2.2-1,2.3-2.5c0.1-1.2-0.4-2.1-1.5-2.7c-1.1-0.6-2.2-0.6-3.4,0.2
			c-0.8,0.5-1.1,1.3-1.5,2c-0.6,1.1-1.5,1.6-2.7,0.9c-1.1-0.6-1.5-1.5-0.9-2.7c1.1-2.6,3.2-3.8,5.8-4.1c3-0.4,5.9,0,7.8,2.7
			c1.5,2.2,1.2,4.5-0.5,6.6c-0.7,0.8-0.9,1.3,0.1,2c2.6,2,3.1,4.7,1.8,7.5C809.1,436.8,806.2,438.2,802.7,438.2z"/>
		<path class="st2" d="M333.9,435.4c-0.6-1.9-0.8-3.8-0.5-6.5c-0.2-2.1,0.5-5.5-2.8-6.9c-3.6-1.6-7.4-1.5-10.9,0.6
			c-1.3,0.8-2.6,2.1-1.4,3.7c1.2,1.7,2.6,0.8,3.7-0.5c1.2-1.4,2.8-1.5,4.5-1.3c1,0.1,2,0.6,2,1.7c0,1.1-1.1,1.1-1.9,1.3
			c-2.1,0.5-4.2,0.8-6.3,1.5c-2,0.7-3.2,2.1-3.2,4.4c0,2.4,1.4,3.9,3.5,4.5c2.2,0.7,4.6,0.5,6.5-1c1.4-1,2.3-1.2,3.3,0.4
			c0.6,1,1.6,1.1,2.5,0.6C333.9,437.3,334.3,436.5,333.9,435.4z M328.8,431.1c-0.4,2.7-2.1,3.5-4.3,3.6c-1.3,0.1-2.4-0.5-2.5-1.9
			c-0.1-1.3,3.5-2.8,6-2.7C329,430.1,328.7,430.7,328.8,431.1z"/>
		<path class="st2" d="M597.8,435.2c-0.6-1.7-0.7-3.6-0.5-6.2c-0.2-2.1,0.6-5.5-2.6-7c-3.7-1.7-7.6-1.6-11.1,0.7
			c-1.2,0.8-2.5,2.2-1.2,3.8c1.2,1.4,2.5,0.7,3.5-0.5c1.3-1.5,3-1.6,4.8-1.4c0.9,0.1,1.7,0.6,1.8,1.6c0.1,1.2-1,1.2-1.7,1.4
			c-2.1,0.6-4.2,0.8-6.3,1.5c-2.1,0.7-3.4,2.1-3.3,4.6c0.1,2.4,1.6,3.8,3.6,4.4c2.2,0.7,4.6,0.3,6.5-1.1c1.3-1,2.2-1.1,3,0.4
			c0.6,1,1.5,1.3,2.5,0.7C597.9,437.4,598.3,436.5,597.8,435.2z M588.4,434.7c-1.2,0.1-2.2-0.4-2.5-1.6c-0.4-1.4,0.6-1.9,1.8-2.2
			c1.6-0.3,3.1-0.7,5-1.1C592.9,433.3,591.1,434.5,588.4,434.7z"/>
		<path class="st2" d="M104.1,433c-0.7,0.5-1.5,0.9-2.2,1.3c-2.9,1.2-4.9,0.1-6-3.3c2.8,0,5.6,0,8.4,0c3.3-0.1,4.2-1.5,3.2-4.6
			c-1.1-3.4-3.9-5.3-8-5.3c-4.2,0-6.9,2-8,5.7c-1.2,3.8,0.1,7.8,3,9.9c3.3,2.2,9.2,1.9,11.8-0.6c0.9-0.9,1.7-1.9,0.9-3.1
			C106.3,431.5,105.2,432.4,104.1,433z M99.9,424.6c2.1,0.2,3.3,1.4,3.3,3.7h-7.4C96.3,425.8,97.6,424.4,99.9,424.6z"/>
		<path class="st2" d="M459.8,433c-0.6,0.4-1.3,0.8-1.9,1.2c-3.1,1.4-5.2,0.4-6.4-3.2c3,0,5.8,0.1,8.7,0c2.9-0.1,3.8-1.4,3-4.3
			c-0.9-3.4-3.7-5.5-7.4-5.6c-4.6-0.1-7.5,1.7-8.7,5.7c-1.2,3.8,0,7.8,2.9,9.9c3.3,2.3,9.1,2,11.8-0.6c1-0.9,1.9-2.1,0.8-3.4
			C461.7,431.6,460.7,432.4,459.8,433z M454.9,424.6c2.3-0.2,3.6,1,4.1,3.7h-7.5C451.7,426.1,452.8,424.7,454.9,424.6z"/>
		<path class="st2" d="M642.6,432.9c-0.6,0.4-1.2,0.9-1.9,1.2c-3.1,1.5-5.1,0.6-6.7-3.1c3.1,0,5.9,0,8.7,0c3.1-0.1,4-1.4,3.2-4.4
			c-1.2-4.2-5.4-6.4-10.1-5.4c-4.4,1-7.1,5.1-6.3,9.9c0.5,3.4,2.4,5.8,5.8,6.7c3.5,0.9,6.9,0.6,9.7-2c0.8-0.8,1.4-1.9,0.6-2.9
			C644.6,431.7,643.6,432.3,642.6,432.9z M638,424.5c2.1,0.1,3.3,1.3,3.5,3.6h-7.5C634.6,425.8,635.7,424.4,638,424.5z"/>
		<path class="st2" d="M363.9,433.1c1.3-3.6,2.4-6.6,3.5-9.7c0.5-1.3,1.1-2.8,3-2.2c1.8,0.6,1.5,2,1,3.5c-2.1,5.4-4.1,10.9-6.4,16.2
			c-1.4,3.3-4.2,4.5-7.7,3.7c-1.1-0.3-2.1-0.8-2-2.1c0.1-1.3,1.2-1.2,2.2-1.3c3.3-0.2,4.5-2.1,3.3-5.1c-1.5-3.8-3-7.6-4.6-11.4
			c-0.7-1.6-0.6-2.8,1-3.5c1.7-0.7,2.6,0.4,3.1,1.9C361.4,426.4,362.5,429.5,363.9,433.1z"/>
		<path class="st2" d="M378.4,248.7c0,4.2-3.3,7.4-7.4,7.4c-4-0.1-7.2-3.2-7.2-7.3c-0.1-4.1,3.3-7.5,7.3-7.6
			C375.1,241.2,378.4,244.6,378.4,248.7z"/>
		<path class="st2" d="M371.3,158.3c0-4.1,3.4-7.5,7.4-7.4c4,0.1,7.3,3.5,7.2,7.6c-0.1,4-3.4,7.2-7.3,7.2
			C374.4,165.7,371.3,162.5,371.3,158.3z"/>
		<path class="st2" d="M316.7,339.1c0,4.1-3.4,7.4-7.5,7.3c-4-0.1-7.1-3.3-7.2-7.3c0-4.1,3.3-7.5,7.3-7.5
			C313.4,331.6,316.7,335,316.7,339.1z"/>
		<path class="st2" d="M158.7,421.1c-5.2,0-8.6,3.2-8.7,8.3c-0.1,5.2,3.3,8.7,8.6,8.8c5.4,0,8.8-3.2,8.9-8.5
			C167.5,424.5,164.1,421.1,158.7,421.1z M158.8,434.8c-2.5,0.1-4.1-2-4.1-5.2c0-3.2,1.7-5.2,4.2-5.1c2.4,0.1,4,2,4,5
			C162.9,432.6,161.3,434.7,158.8,434.8z"/>
		<path class="st2" d="M257.5,421.1c-5.2,0-8.6,3.2-8.7,8.3c-0.1,5.2,3.3,8.7,8.6,8.7c5.4,0,8.8-3.2,8.8-8.5
			C266.3,424.5,262.9,421.1,257.5,421.1z M257.6,434.8c-2.5,0-4.1-2-4.1-5.2c0-3.2,1.7-5.2,4.2-5.1c2.4,0.1,3.9,2.1,4,5
			C261.7,432.6,260.1,434.7,257.6,434.8z"/>
		<path class="st2" d="M520.9,421.1c-5.4,0-8.8,3.3-8.8,8.6c0,5.1,3.4,8.4,8.6,8.5c5.4,0,8.8-3.2,8.9-8.4
			C529.6,424.5,526.2,421.1,520.9,421.1z M520.9,434.8c-2.5,0.1-4.1-1.9-4.1-5.1c0-3.2,1.6-5.2,4.1-5.1c2.5,0.1,4.1,2.2,4.1,5.3
			C524.9,432.7,523.3,434.7,520.9,434.8z"/>
		<path class="st2" d="M337.5,429.4c0-1.9,0-3.9,0-5.8c0-1,0.3-2,1.4-2.3c1-0.3,2-0.2,2.5,0.9c0.6,1.3,1.1,0.7,1.9,0.2
			c5.6-3.1,9.8-0.6,9.8,5.9c0,2.3,0,4.5,0,6.8c0,1.6-0.1,3.2-2.3,3.1c-2-0.1-2.3-1.6-2.3-3.3c0-2.2,0-4.3,0-6.5
			c0-1.8-0.1-3.7-2.5-3.8c-2.3-0.1-3.6,1.4-3.8,3.6c-0.2,2.3-0.1,4.5-0.1,6.8c0,1.6-0.2,3.2-2.3,3.2c-2.1,0-2.3-1.6-2.4-3.2
			C337.4,433.1,337.4,431.3,337.5,429.4C337.4,429.4,337.4,429.4,337.5,429.4z"/>
		<path class="st2" d="M601.4,429.5c0-2.1-0.1-4.1,0-6.2c0.2-2.1,2.2-3.1,3.3-1.7c1.3,1.5,1.9,1,3.2,0.3c4.5-2.5,9,0.2,9.1,5.2
			c0.1,2.8,0,5.6,0,8.4c0,1.5-0.5,2.6-2.2,2.6c-1.6,0-2.3-1.1-2.4-2.5c-0.1-2.5,0-5,0-7.5c0-1.7-0.3-3.4-2.4-3.6
			c-2.2-0.2-3.6,1.1-3.9,3.2c-0.3,2.2-0.2,4.5-0.2,6.8c0,1.6,0.2,3.5-2.2,3.6c-2.5,0-2.4-2-2.5-3.7
			C601.4,432.8,601.4,431.1,601.4,429.5C601.4,429.5,601.4,429.5,601.4,429.5z"/>
		<path class="st2" d="M170.4,429.5c0-2.1-0.1-4.1,0-6.2c0.2-2.1,2.2-3.1,3.3-1.7c1.3,1.5,1.9,1,3.2,0.3c4.5-2.5,9,0.2,9.1,5.2
			c0.1,2.8,0,5.6,0,8.4c0,1.5-0.5,2.6-2.2,2.6c-1.6,0-2.3-1.1-2.4-2.5c-0.1-2.5,0-5,0-7.5c0-1.7-0.3-3.4-2.4-3.6
			c-2.2-0.2-3.6,1.1-3.9,3.1c-0.3,2.3-0.2,4.8-0.2,7.1c0,1.6,0,3.2-2.2,3.3c-2.3,0.1-2.5-1.7-2.5-3.4
			C170.3,433,170.4,431.3,170.4,429.5C170.4,429.5,170.4,429.5,170.4,429.5z"/>
		<path class="st2" d="M407.7,429.5c0-1.9,0-3.9,0-5.8c0-1,0.3-2,1.4-2.4c1-0.4,2-0.2,2.5,0.8c0.6,1.2,1,0.8,1.9,0.3
			c5.6-3.1,9.8-0.6,9.9,5.8c0,2.4,0,4.8,0,7.1c0,1.6-0.3,2.9-2.2,2.9c-1.8,0-2.3-1.3-2.3-2.9c0-2.4,0-4.8,0-7.1
			c0-1.7-0.3-3.4-2.5-3.5c-2.2-0.1-3.5,1.2-3.8,3.2c-0.3,2.2-0.1,4.5-0.2,6.8c0,1.6,0.1,3.5-2.2,3.5c-2.3,0-2.4-1.8-2.4-3.5
			C407.6,432.9,407.6,431.2,407.7,429.5C407.7,429.5,407.7,429.5,407.7,429.5z"/>
		<path class="st2" d="M655.1,421c2.4,0,4.6,0.5,6.2,2.2c0.9,0.9,1.8,2.2,0.6,3.4c-1.3,1.3-2.5,0.8-3.5-0.5c-1-1.3-2.3-1.9-4-1.6
			c-0.7,0.1-1.5,0.4-1.7,1.3c-0.1,1.1,0.8,1.2,1.5,1.4c1.9,0.6,4,0.9,5.9,1.7c3.7,1.5,4.2,5.4,1,7.8c-2.8,2.1-9,1.9-11.6-0.4
			c-1.3-1.2-2.3-2.6-0.8-4.2c1.5-1.5,2.4-0.2,3.4,1c0.5,0.6,1.3,1.2,2.1,1.4c1.6,0.4,3.6,0.7,4.2-1.2c0.6-2-1.7-1.8-2.9-2.3
			c-1.2-0.5-2.5-0.6-3.7-1c-1.9-0.7-3.7-1.8-3.6-4.1c0-2.5,1.8-3.8,4-4.5C653.2,421.2,654.2,421.2,655.1,421z"/>
		<path class="st2" d="M705.9,438.2c-4,0-6.7-1.8-7.9-5.6c-1.2-3.9,0.2-8.1,3.2-10.1c3.1-2,8.3-1.8,11,0.5c1.2,1.1,2.7,2.5,1.3,4.1
			c-1.5,1.7-2.7,0.4-3.9-0.9c-1.9-2.1-4.2-2.2-5.9-0.4c-2,2-1.9,6.2,0.1,8c1.8,1.6,4.2,1.4,6-0.6c0.3-0.3,0.5-0.7,0.8-1.1
			c0.7-0.9,1.5-1.6,2.7-0.8c1.2,0.9,1.2,2.1,0.6,3.2C712.2,437.2,709.5,438.2,705.9,438.2z"/>
		<path class="st2" d="M119.5,438.2c-4.7,0-7.4-1.8-8.5-5.7c-1.2-3.9,0.2-8.1,3.3-10.1c3.1-2,8.3-1.8,10.9,0.6
			c1.2,1.1,2.7,2.5,1.2,4.1c-1.5,1.7-2.7,0.3-3.9-1c-1.9-2.1-4.2-2.2-5.9-0.4c-1.9,2-1.9,6.2,0.2,8c1.8,1.6,4.2,1.4,6-0.7
			c1-1.2,1.9-3.3,3.7-1.5c1.8,1.8,0.3,3.4-1.2,4.6C123.6,437.7,121.5,438.3,119.5,438.2z"/>
		<path class="st2" d="M723.6,438.1c-3.5,0-4.7-1-5-4.5c-0.2-2.1-0.1-4.3-0.1-6.5c0-1.2,0.3-2.5-1.5-3c-1-0.3-1.2-2.1-0.3-2.4
			c2.3-0.8,1.7-2.5,1.9-4.1c0.1-1.6,0.5-3.1,2.6-3c1.9,0.1,2.1,1.6,2,3.1c0,1.8-0.4,3.7,2.5,3.5c0.6,0,1.1,0.8,1.1,1.4
			c0,1-0.7,1.7-1.6,1.7c-2-0.1-1.9,1.1-1.9,2.5c0.1,1.9,0,3.9,0,5.8c0,1.4,0.6,2.3,2.2,2c1.3-0.3,2.6-0.3,2.6,1.4
			c0,1.4-1.4,1.8-2.5,2C724.9,438.2,724.2,438.1,723.6,438.1z"/>
		<path class="st2" d="M136.1,438.1c-3.6,0.1-4.9-1-5.2-4.6c-0.2-1.9,0-3.9-0.1-5.8c0-1.4,0.5-2.9-1.6-3.6c-1-0.3-1.1-2.1-0.1-2.4
			c2.2-0.7,1.6-2.4,1.8-3.9c0.1-1.6,0.4-3.2,2.4-3.2c2.1,0,2.2,1.7,2.2,3.3c0.1,1.6-0.7,3.6,2.3,3.3c0.7-0.1,1.3,0.8,1.2,1.7
			c-0.1,1-0.8,1.6-1.8,1.6c-1.8-0.1-1.8,1-1.8,2.3c0.1,1.9,0,3.9,0,5.8c0,1.3,0.3,2.5,2,2.2c1.2-0.2,2.6-0.5,2.8,1.2
			c0.1,1.6-1.4,1.9-2.7,2.2C137.2,438.2,136.6,438.1,136.1,438.1z"/>
		<path class="st2" d="M782.8,421.7c-1.8,1.1-3.1,2-4.4,2.6c-1,0.5-1.9,0.2-2.5-0.8c-0.6-1.1-0.1-1.9,0.9-2.4
			c2.9-1.4,5.3-3.2,7.2-5.8c1.2-1.6,3.2-0.7,3.3,1.4c0.2,6.4,0.1,12.8,0,19.1c0,1.3-0.7,2.3-2.2,2.3c-1.6,0-2.3-1-2.3-2.5
			C782.8,431.1,782.8,426.6,782.8,421.7z"/>
		<path class="st2" d="M821.8,415c2.1-0.8,3.1,0.1,4,1.3c5.7,7.6,5.7,19.1,0,26.6c-0.9,1.2-1.8,2.1-3.9,1.4
			C827,434.6,827.1,424.8,821.8,415z"/>
		<path class="st2" d="M26.1,414.6c1.7,0.3,0.5,1.4,0.2,2.2c-1.9,4.2-3,8.5-3,13.1c0,4.4,1.2,8.5,3,12.4c0.3,0.7,1.3,1.6,0.1,2.2
			c-0.9,0.5-1.9-0.1-2.6-0.9c-2.5-3.3-4.2-7-4.8-11.1c-0.8-5.9,0.8-11.3,4.2-16.2C23.8,415.5,24.5,414.6,26.1,414.6z"/>
		<path class="st2" d="M466.9,429.5c0-1.9-0.1-3.9,0-5.8c0.2-2.6,1.9-3.4,3.9-1.8c1.1,0.8,1.4,0.2,2-0.2c1.6-1,3.3-0.8,4.9,0
			c0.9,0.5,1.7,1.1,1.2,2.3c-0.4,1-1.4,1.5-2.4,1c-3.6-1.5-4.5,0.6-4.8,3.4c-0.3,2.4-0.2,4.7-0.3,7.1c0,1.5-0.5,2.5-2.2,2.6
			c-1.7,0-2.3-1.1-2.4-2.5C466.8,433.6,466.9,431.6,466.9,429.5C466.9,429.5,466.9,429.5,466.9,429.5z"/>
		<path class="st2" d="M141.9,429.2c0-1.8-0.1-3.7,0-5.5c0.1-1.4,0.6-2.5,2.3-2.6c1.7-0.1,2.3,1,2.3,2.5c0,4.1,0,8.2,0,12.3
			c0,1.3-0.7,2.2-2.2,2.3c-1.5,0.1-2.2-0.9-2.3-2.2C141.8,433.7,141.9,431.5,141.9,429.2C141.9,429.2,141.9,429.2,141.9,429.2z"/>
		<path class="st2" d="M625.6,429.5c0,2,0,4.1,0,6.1c0,1.5-0.6,2.5-2.3,2.5c-1.7,0-2.3-1.2-2.3-2.6c-0.1-4-0.1-8,0-11.9
			c0-1.4,0.7-2.5,2.3-2.5c1.7,0,2.2,1.1,2.3,2.5C625.7,425.6,625.7,427.5,625.6,429.5C625.7,429.5,625.6,429.5,625.6,429.5z"/>
		<path class="st2" d="M625.6,416.6c0,1.5-0.8,2.1-2.2,2.1c-1.4,0-2.3-0.7-2.3-2.1c0-1.2,0.9-1.9,2.1-1.9
			C624.6,414.6,625.5,415.1,625.6,416.6z"/>
		<path class="st2" d="M146.5,416.6c-0.1,1.5-0.9,2.1-2.3,2c-1.4,0-2.3-0.8-2.2-2.1c0.1-1.2,1-1.8,2.2-1.9
			C145.5,414.6,146.4,415.1,146.5,416.6z"/>
		<path class="st4" d="M51.3,428.8c-2.2,0-4.2,0-6.5,0c1-2.9,1.9-5.6,3.1-9.1C49.2,423.1,50.2,425.9,51.3,428.8z"/>
	</g>
</g>
<g id="Layer_2">
	<g>
		<path class="st5" d="M815.6,272.2c-2.9-27.1-14.1-50.5-32.9-70.1c-21.4-22.2-47.6-35-78.2-38.5c-33.9-3.9-64.8,4.2-92.2,24.4
			c-28.2,20.8-44.7,48.9-49,83.9c-1.8,14.4-0.5,28.5,3.1,42.5c0.8,3,1.4,3.2,3.5,1c4.7-4.9,10.4-8.5,16.6-11.1
			c5.2-2.1,10.6-3.2,16.9-2c-0.8,0.7-1,1-1.2,1.1c-11.1,6.6-14,16.4-7.9,27.9c6.6,12.6,17.8,18.9,31.3,21.3
			c12.4,2.3,24.6,0.2,36.7-2.4c16.5-3.5,32.3-9.5,48.3-15.1c18.1-6.4,36.3-12.3,56.1-9.4c11.8,1.7,23.2,4.5,33,11.6
			c3.2,2.3,3.2,2.4,5-1.3C814.3,316,818,294.5,815.6,272.2z M614.4,270.7c-5.2,2.2-6.3,5.7-3.6,10.7c0.8,1.5-0.3,2.2-1.9,1.7
			c-0.2-0.1-0.4-0.2-0.6-0.3c-3.7-3.8-7.4-4-11.2,0c-0.5,0.6-1.3,0.8-2.1,0.3c-0.8-0.5-0.6-1.3-0.3-2c0.2-0.4,0.3-0.8,0.5-1.2
			c1.6-5,1.6-5-2.7-8.2c-0.9-0.6-2.5-1-2-2.5c0.5-1.4,2-0.9,3.1-0.9c0.4,0,0.9,0,1.8,0c3.6,1.2,4.4-1.7,5.3-4.6c0.3-1.1,0.2-3,2-3
			c1.7,0,1.8,1.8,1.9,3c0.6,3.8,2.7,5.4,6.5,4.7c0.7-0.1,1.5,0,2.3,0c0.7,0,1.3,0.2,1.6,0.9C615.4,269.8,615.1,270.4,614.4,270.7z
			 M616.9,234.1c-0.1,0.1-0.3,0.3-0.5,0.4c-4.1,2.9-4,2.9-2.5,7.6c0.4,1.1,1.5,2.5,0.1,3.5c-1.3,0.9-2.1-0.6-3.1-1.2
			c-5.5-3.6-3.4-3.5-8.8,0c-1,0.6-2,2.2-3.3,1.1c-1.2-0.9-0.1-2.2,0.2-3.3c1.7-5.8,2.6-4-2.6-8c-0.9-0.7-2.8-1.1-2.2-2.7
			c0.6-1.5,2.3-0.7,3.5-0.9c0.1,0,0.2,0,0.3,0c3.8,0.7,5.8-0.7,6.4-4.6c0.2-1.2,0.4-2.6,2-3.2c0.3,0.2,0.7,0.4,1,0.7
			c0.4,0.5,0.6,1.1,0.8,1.7c2,5.3,2,5.3,7.5,5.4c1.1,0,2.6-0.5,3,1.1C619.1,233,617.6,233.3,616.9,234.1z M655.6,241.9
			c-4.9,2.2-6.4,5.5-3.6,10.3c0.4,0.7,0.4,1.5-0.4,2.1c-0.8,0.5-1.5,0.1-2-0.5c-3.6-3.6-7.2-4.1-10.9-0.1c-0.6,0.6-1.4,1.2-2.3,0.5
			c-0.8-0.7-0.5-1.6-0.2-2.4c0.3-0.7,0.4-1.5,0.8-2.1c1.7-2.9,0.6-4.7-2.1-6.2c-1.3-0.7-3.7-1.3-3-3.2c0.6-1.9,2.9-0.4,4.4-1.1
			c4.1,1.3,5-1.3,5.8-4.4c0.3-1.2,0.4-3,1.9-3.1c1.6-0.1,1.8,1.7,2,2.9c0.6,4.1,3,5.4,6.8,4.7c0.6-0.1,1.3,0,1.9,0
			c0.8,0,1.6,0.1,1.8,1C656.7,241,656.2,241.6,655.6,241.9z M659.3,204.1c-0.2,0.1-0.4,0.3-0.5,0.4c-4.6,3.4-4.6,3.4-3,9.1
			c0.2,0.8,0.8,1.7,0,2.4c-0.9,0.8-1.8,0.2-2.6-0.4c-0.2-0.1-0.4-0.2-0.5-0.4c-4.7-3.1-4.7-3.1-9.3,0c-0.9,0.6-1.9,1.8-3.1,0.7
			c-1-0.9-0.1-2,0.3-3c1.2-2.9,2.4-5.6-1.7-7.5c-1.3-0.6-3.6-1.4-3-3.2c0.6-1.9,2.9-0.6,4.6-1c3.4,1.1,4.7-0.9,5.4-4
			c0.2-0.7,0.5-1.4,0.8-2.1c0.3-0.7,0.5-1.5,1.5-1.4c0.7,0.1,1.3,0.6,1.3,1.2c0.7,5.6,3.9,7.4,9.1,6.4c0.7-0.1,1.6,0.1,1.9,1
			C660.7,203.3,659.8,203.7,659.3,204.1z M764.6,294.1c-10.1,7.3-21.4,10.7-32.8,10.8c-26.3-0.1-48.9-16.6-55.4-39.6
			c-7.9-28.3,8.2-57.7,36.5-66.3c18.1-5.5,35.1-3.2,50.8,7.5c0.4,0.2,0.7,0.5,1.1,0.8c0.7,0.6,2,1,1.2,2.2c-0.7,1.1-1.8,0.5-2.6,0.1
			c-4.3-2.2-8.8-3.5-13.6-4.2c-26.9-4.3-51.3,13.5-55.1,40.4c-1.9,13.3,3.1,24.8,11.9,34.5c15.1,16.6,35.7,20.7,56.5,11.5
			c0.9-0.4,2.1-1.4,2.9-0.1C766.9,293,765.4,293.5,764.6,294.1z M772.8,237.2c-2.2,1.6-4.4,3.2-6.7,4.6c-1.8,1.1-2,2.2-1.2,4.1
			c0.9,2.1,1.5,4.3,2.2,6.4c0.4,1.2,1.1,2.5-0.3,3.5c-1.2,0.9-2.2-0.1-3.2-0.7c-2.1-1.5-4.3-2.9-6.4-4.5c-1.3-1-2.3-1.1-3.7,0
			c-2.2,1.7-4.6,3.3-6.9,4.9c-0.9,0.6-1.9,1.2-2.9,0.2c-0.9-0.8-0.7-1.7-0.3-2.7c0.9-2.5,1.4-5,2.5-7.4c0.9-2,0.2-2.9-1.4-3.9
			c-2.1-1.3-4.1-2.8-6.1-4.2c-1-0.7-2.2-1.3-1.6-2.8c0.5-1.5,1.8-1.3,3-1.3c1.3,0,2.6,0,3.9,0c6.2,0,6.2,0,8.3-6
			c0.4-1.1,0.8-2.2,1.2-3.4c0.4-1.1,0.8-2.4,2.3-2.3c1.3,0.1,1.7,1.1,2,2.2c0.8,2.5,1.8,4.9,2.5,7.4c0.5,1.6,1.4,2.2,3,2.1
			c2.8-0.1,5.6,0,8.4,0c1.2,0,2.2,0.2,2.6,1.4C774.5,236,773.6,236.6,772.8,237.2z"/>
		<path class="st5" d="M78.7,18c9.7-0.2,18.8,1.4,27.4,5.4c1.8,0.8,2.9,0.7,3.5-1.1c0.9-2.4,2.6-2.8,4.9-2.6
			c2.9,0.3,6.5-1.2,8.5,0.6c1.8,1.6,1.9,5.1,2.7,7.8c2.9,9.7,5.6,19.5,8.6,29.2c0.6,2,0.2,2.6-1.7,3.1c-3.8,0.9-7.5,1.9-11.3,3.1
			c-1.8,0.6-2.7,0-3.6-1.6c-2.8-5.1-6-10.1-10-14.4c-9-9.7-19.8-14.5-33-10.5c-13.5,4-19.9,14.3-21.9,27.5
			c-1.8,11.4,0,22.4,6.1,32.5c9.6,15.8,26.9,21,43.6,13.1c8.6-4,15.7-9.9,21.6-17.4c1.5-1.9,2.5-2.1,4.4-0.6c3,2.3,6.1,4.4,9.3,6.5
			c1.1,0.7,1.5,1.2,0.5,2.4c-11.2,14.5-24.4,26.1-43.1,29.7c-21.7,4.3-41.9,1.2-58.2-14.7c-16.8-16.4-22-36.6-15-59
			C29,35,45.3,22.8,68,18.7C71.6,18.1,75.3,18,78.7,18z"/>
		<path class="st5" d="M612.3,385.5c27.3-0.6,52.3-9.9,76.8-20.7c14.3-6.4,28.5-13.1,43.8-17c12.6-3.2,25.3-5,38.2-2.5
			c7,1.4,13.3,4.4,18.8,8.9c1.4,1.2,1.4,2,0.3,3.5c-18.2,24.3-42.1,40.2-71.5,47.6c-34.4,8.7-66.9,2.5-98-13.4
			c-2.8-1.4-5.3-3.3-7.9-5C612.6,386.7,612.1,386.5,612.3,385.5z"/>
		<path class="st5" d="M659.3,59.8c8.3-5.1,16.3-9.3,25.7-10.2c9.4-0.9,18.1,0.6,25.4,7.3c4.9,4.5,6,10.4,6,16.6
			c0.1,11.5,0,23,0,34.4c0,6.5,0.8,7.2,7.3,7.2c5.7,0,5.7,0,5.7,5.6c0,2.7-0.1,5.4,0,8.1c0,1.4-0.5,1.9-1.9,1.8c-15.5,0-31,0-46.5,0
			c-1.5,0-1.8-0.6-1.8-1.9c0.1-3.9,0.1-7.8,0-11.7c0-1.7,0.7-2,2.2-1.9c1,0.1,1.9,0,2.9,0c2.9,0,4.6-1.5,4.6-4.3
			c0.3-11.8,0.4-23.6-0.1-35.4c-0.2-4.6-2.8-6.6-7.6-6.6c-7,0-12.5,3.6-18.1,7.2c-1,0.6-0.7,1.5-0.7,2.3c0,10.3-0.1,20.6,0,30.9
			c0,5,1.1,6.1,6.2,5.9c2.8-0.1,3.9,0.5,3.6,3.5c-0.3,3.3-0.1,6.7,0,10.1c0,1.5-0.4,2.1-2,2c-15.2-0.1-30.3-0.1-45.5,0
			c-1.8,0-2.2-0.6-2.1-2.2c0.1-3.7,0.1-7.4,0-11c-0.1-2,0.7-2.4,2.5-2.3c11.8,0.6,10-2.3,10-10.4c0-10.1-0.1-20.1,0.1-30.2
			c0-2.2-0.4-3.1-2.8-2.9c-2.5,0.2-5,0-7.5,0.1c-1.6,0.1-2.3-0.3-2.3-2.1c0.1-3.8,0.1-7.6,0-11.4c0-1.5,0.5-2.1,2-2.2
			c8.7-1,17.2-3.1,25.5-6c2.5-0.9,5.2-0.3,7.7-0.5c1.6-0.1,1.3,1,1.3,2C659.3,54,659.3,56.6,659.3,59.8z"/>
		<path class="st5" d="M607.7,110.6c-2.8-2.5-5.6-5.1-8.3-7.8c-1.5-1.5-2.4-1.4-3.9,0c-4.8,4.7-10.3,8.2-16.8,10.1
			c-13,4-25-3.2-27.7-16.5c-1-4.8-1-4.8,4-4.8c16.6,0,33.1,0,49.7,0c1.2,0,2.9,0.7,2.9-1.8c0.2-12.9-3.7-24.3-14.3-32.2
			c-12.8-9.6-27.4-10.2-42.1-6.2c-24.5,6.7-37.1,30.9-28.4,53.5c6.3,16.6,23.6,27.6,43.2,27.6c16.9,0.2,30.4-7.1,41.9-18.9
			C609.3,112.3,608.8,111.6,607.7,110.6z M552.2,76.3c1.3-6.3,7.3-11.3,14-11.4c6.8-0.1,12.3,4.2,13.7,10.6c0.5,2.1,0.1,2.9-2.2,2.8
			c-3.9-0.2-7.8,0-11.7,0c-4,0-8,0-12,0C552.5,78.3,551.8,78.1,552.2,76.3z"/>
		<path class="st5" d="M315.6,110.8c-2.8-2.5-5.6-5.1-8.2-7.8c-1.5-1.5-2.5-1.7-4.1-0.1c-4.6,4.6-10,7.9-16.2,9.9
			c-13.9,4.4-26.4-3.5-28.6-18c-0.4-2.9,0.5-3.2,2.9-3.2c8.4,0.1,16.9,0.1,25.3,0.1c8.8,0,17.5,0,26.3,0c1.1,0,2.2,0.5,2.4-1.6
			c1-14.7-7.1-29.6-19.8-36c-7.7-3.9-16-5.1-24.6-4.6c-14.4,0.9-26.9,5.9-35.5,17.9c-16.6,23-4.5,55.4,23.6,63.1
			c22.2,6,40.9-0.6,56.6-16.9C316.9,112.4,316.7,111.7,315.6,110.8z M260.1,76c1.3-6.4,7.5-11.2,14.6-11.1c6.6,0.1,12,4.8,13.2,11.2
			c0.4,1.9-0.4,2.2-2,2.1c-4-0.1-8,0-12,0c-4,0-8-0.1-12,0C259.8,78.4,259.8,77.6,260.1,76z"/>
		<path class="st5" d="M377.9,132.5c-10.5,0.1-17.7-1.4-24.4-5.1c-1.3-0.7-2.2-0.9-2.7,0.7c-0.7,2.3-2.4,2.5-4.5,2.5
			c-8.4-0.1-8.4,0-11.5-7.8c-2.2-5.4-4.3-10.9-6.6-16.2c-0.8-1.8-0.4-2.4,1.4-3c4.1-1.5,8.1-3.1,12-4.8c1.6-0.7,2.4-0.3,3.4,1.1
			c6.5,8.6,14.8,14.4,25.5,16.7c3.6,0.8,7.3,0.7,10.8-0.9c1.7-0.8,3.3-2,3.4-4c0.2-2.1-1.3-3.4-2.9-4.4c-2.5-1.6-5.3-2.4-8.1-3.3
			c-9.5-3.2-19.3-5.7-28.4-9.9c-5.7-2.6-10.8-6-13.5-12c-3.7-8-1.4-17.7,5.7-23.8c8.6-7.5,18.9-9.5,30-8.6
			c5.4,0.4,10.7,1.7,15.5,4.3c1,0.6,2,1,2.6-0.5c0.8-2,2.4-2.1,4.2-2.1c8.3,0,8.3,0,10.8,8.1c1.2,3.8,2.3,7.7,3.7,11.4
			c0.9,2.3,0.2,3.2-2,3.9c-3.7,1.2-7.3,2.6-10.9,4.1c-1.8,0.7-2.7,0.5-4-1.1c-6.5-8.1-14.6-13.1-25.3-12.7c-0.4,0-0.9,0-1.3,0.1
			c-2.5,0.5-5.2,1.1-5.7,4c-0.6,3.1,2,4.4,4.3,5.2c9.3,3.2,18.6,6.4,27.9,9.5c4,1.4,7.8,3.1,11.5,5.1c14.6,7.8,13.2,26.4,3.1,34.8
			C394.7,129.5,385.8,132.5,377.9,132.5z"/>
		<path class="st5" d="M468.7,49.4c11.8,0.1,23.4,2.7,32.8,11.3c3.9,3.6,6.8,7.9,6.3,13.6c-0.2,3.1-1.5,5.6-3.7,7.7
			c-6,5.3-18.6,6.2-23.2-3.9c-0.9-2-2.1-3.8-3.2-5.6c-3.8-6-9.9-7.8-16.3-4.7c-7,3.4-10,9.6-11.2,16.8c-0.7,4.2-0.5,8.4,0.7,12.5
			c4.3,15.1,19.5,21.2,33.9,13.5c4.2-2.2,7.7-5.2,10.9-8.6c1.3-1.4,2-1.4,3.3-0.2c3.1,2.7,6.3,5.3,9.5,7.8c0.9,0.7,1.3,1.2,0.4,2.3
			c-18.3,21.2-44.1,25.4-64.8,16.1c-16.9-7.6-26-23.3-24.4-40.2c1.7-17.8,14-31.8,32.1-36.5C457.2,49.9,462.7,49.4,468.7,49.4z"/>
		<path class="st5" d="M809.3,109.1c0,5.3,0,10.1,0,15c0,1.3-0.3,2.1-1.7,2.7c-12.8,5.4-25.8,6.9-39.3,3.1
			c-3.8-1.1-7.2-2.9-10.3-5.4c-5-3.9-7.2-9.1-7.2-15.3c-0.1-12.7-0.2-25.3-0.1-38c0-2.5-0.7-3.2-3.1-3c-3.1,0.2-7.3,1.1-9.1-0.5
			c-2-1.8-0.5-6.1-0.7-9.3c-0.1-1.1,0-2.2,0-3.2c-0.1-1.5,0.3-2.3,1.9-2.8c12.2-4.3,19.2-13.1,21.3-25.9c0.3-1.9,0.9-2.5,2.8-2.5
			c3.9,0.2,7.8,0.2,11.7,0c2.1-0.1,2.5,0.7,2.5,2.6c-0.1,7,0.1,14.1-0.1,21.1c-0.1,3.1,1,3.7,3.8,3.6c7-0.2,14.1,0,21.1-0.1
			c2,0,2.6,0.5,2.6,2.5c-0.2,4-0.1,8,0,12c0.1,2-0.5,2.6-2.5,2.6c-7.4-0.1-14.7,0-22.1-0.1c-2,0-2.8,0.4-2.8,2.6
			c0.2,9.8,0,19.7,0.2,29.6c0.2,10.6,6,15.2,16.7,13.6c2.4-0.4,4.9-1,7.2-1.8C804.5,111.5,806.7,110.3,809.3,109.1z"/>
		<path class="st5" d="M186.1,60.3c3.2-2.5,5.9-4.8,8.8-6.8c4-2.8,8.5-4.4,13.4-4.1c5.8,0.3,10.2,2.9,12.5,8.3
			c2.2,5.2,1.7,10.2-2,14.6c-3.8,4.6-8.9,5-14.2,3.9c-2.2-0.4-4.4-1.2-6.6-1.7c-3-0.8-5.5,0.8-8,1.9c-1,0.5-0.8,1.4-0.8,2.2
			c0,10.5,0,21,0,31.5c0,3.4,1.3,4.6,4.8,4.8c0.2,0,0.4,0,0.6,0c2.2,0.3,5.2-1,6.6,0.5c1.6,1.7,0.5,4.7,0.5,7.2
			c0,2.5,1.2,5.9-0.6,7.4c-1.5,1.2-4.7,0.4-7.2,0.4c-13.9,0-27.7,0-41.6,0.1c-2.3,0-3.3-0.4-3.1-3c0.2-3.4,0.1-6.9,0-10.4
			c0-1.7,0.5-2.3,2.2-2.2c2.1,0.1,4.1,0,6.2,0c2.3,0,3.6-1.3,3.9-3.5c0.1-1.2,0.3-2.4,0.3-3.6c0-11.3,0-22.5,0.1-33.8
			c0-2.1-0.5-2.9-2.7-2.7c-2.7,0.2-5.4,0-8.1,0.1c-1.4,0-1.9-0.5-1.9-1.9c0.1-3.9,0.1-7.8,0-11.7c0-1.6,0.7-1.9,2.1-2
			c8.6-0.6,16.8-2.7,24.8-5.8c2.9-1.1,5.8-0.5,8.7-0.7c1.4-0.1,1.2,0.9,1.2,1.8C186.1,54,186.1,56.9,186.1,60.3z"/>
		<path class="st5" d="M54,391c-11.8,0-24.8-13.9-23.7-30.1c1.2-17.9,14.8-29.4,31.8-27.1c2,0.3,4,0.7,6,1.3
			c1.8,0.6,3.2,2.2,5.5-0.3c1.8-2,5.5-0.1,6.3,2.7c1.3,4.8,2.6,9.6,4,14.4c0.5,1.8,0.5,3.1-1.8,3.4c-0.5,0.1-1.1,0.1-1.6,0.4
			c-2.7,1.5-4.2,0.5-5.4-2.2c-1.3-2.7-3.1-5.2-5.5-7.2c-7.4-6.5-17.6-4.5-21.6,4.4c-3.8,8.4-3,16.7,2.3,24.4
			c4.2,6.1,11.4,7.9,18.1,4.9c4.1-1.8,7.6-4.7,10.3-8.3c1.1-1.5,1.8-1.9,3.5-0.6c4.5,3.4,4.6,3.3,1,7.7C76.7,386.8,68.6,391,54,391z
			"/>
		<path class="st5" d="M265.4,267c-3.8-6.7-10.9-9.6-18.3-7.2c-1.9,0.6-3.7,1.5-6,2.4v-17.1c0-4.2-0.8-4.8-5-3.4
			c-3.1,1.1-6.2,2.4-9.4,2.4c-4.2,0-4.6,2-4.4,5.4c0.1,2,0.3,3.5,2.8,3c2.7-0.5,3.1,0.8,3.1,3.2c-0.1,12.4-0.1,24.9-0.1,37.4
			c0,6.7,0,6.7,6.8,6.6c0.9,0,2.2,0.4,2.6-0.7c1.2-2.9,2.7-1.6,4.4-0.6c7.2,4.1,15,2.9,20.7-3.1C269.1,288.6,270.4,275.6,265.4,267z
			 M252.8,287.9c-1.6,2.9-4.3,4.1-7.4,3.4c-3.2-0.8-4.2-3-4.2-6.1c0-3.6,0.3-7.2-0.1-10.7c-0.4-4,2.3-4.6,4.9-5.5
			c2.9-1,5.1-0.1,6.7,2.4c1.6,2.6,1.9,5.5,1.8,8.4C254.6,282.6,254.2,285.4,252.8,287.9z"/>
		<path class="st5" d="M87.5,263.8c3.8-2.1,7.5-4.3,12-4.7c8.9-0.9,14.4,3.8,14.4,12.7c0,5.5,0.1,11.1,0,16.6c0,2.4,0.9,3.8,3.4,3.4
			c2.1-0.3,3,0.5,2.7,2.6c-0.1,1.1-0.1,2.2,0,3.2c0.1,1.3-0.3,2-1.8,2c-6.6-0.1-13.2-0.1-19.8,0c-1.4,0-2-0.5-1.9-1.9
			c0.1-1.3,0.1-2.6,0-3.9c-0.1-1.5,0.3-2.2,1.9-2.1c2.1,0.2,2.6-1.2,2.6-2.9c0-5.4,0.1-10.8-0.1-16.2c-0.1-3.3-1.6-4.3-5-3.7
			c-5.4,0.9-7.3,3.2-7.3,8.6c0,3.7,0,7.4,0,11.1c0,1.9,0.3,3.6,2.9,3.3c1.3-0.1,1.6,0.4,1.7,1.7c0.6,6.1,0.6,6.1-5.4,6.1
			c-5.1,0-10.2-0.1-15.3,0.1c-2.2,0.1-2.9-0.7-2.6-2.7c0.1-0.9,0.1-1.7,0-2.6c-0.2-1.9,0.3-2.8,2.4-2.5c2.5,0.3,3.5-1.1,3.4-3.5
			c-0.1-5.1-0.1-10.2,0-15.3c0.1-2.4-0.8-3.1-2.9-2.8c-2.5,0.4-3.1-0.6-3-3c0.2-4.7,0-4.6,4.6-5.7c2.2-0.5,4.4-1.1,6.6-1.8
			C86.7,258,87,258.2,87.5,263.8z"/>
		<path class="st5" d="M90.1,173.5c3.8-2.2,7.5-4.3,12-4.8c8.9-0.9,14.4,3.8,14.5,12.7c0.1,5.4,0.1,10.8,0,16.3
			c-0.1,2.7,0.8,4.2,3.7,3.8c2.2-0.3,2.4,0.8,2.4,2.6c0,5.2,0.1,5.2-5,5.2c-5.3,0-10.6-0.1-15.9,0c-2,0-2.8-0.4-2.6-2.5
			c0.1-1.1,0.1-2.2,0-3.2c-0.1-1.4,0.2-2.3,1.9-2.1c2,0.2,2.6-1.2,2.6-2.9c0-5.4,0.1-10.8,0-16.2c-0.1-3.3-1.6-4.3-4.9-3.8
			c-5.3,0.9-7.3,3.2-7.3,8.5c0,3.8,0,7.6,0,11.4c0,1.8,0.5,3.3,2.8,3c1.6-0.2,1.7,0.7,1.7,2c0.3,5.8,0.4,5.8-5.3,5.8
			c-5.1,0-10.2-0.1-15.3,0.1c-2.2,0.1-2.9-0.6-2.6-2.7c0.1-1,0.1-2,0-2.9c-0.1-1.6,0.2-2.5,2.1-2.2c2.8,0.4,3.9-1,3.8-3.8
			c-0.1-5.1-0.1-10.2,0-15.3c0.1-2.1-0.6-2.8-2.6-2.5c-2.7,0.5-3.4-0.6-3.4-3.3c0-3.2,0.3-5.3,4.3-5.4c2.3,0,4.6-1,6.9-1.8
			C89.3,167.7,89.6,167.8,90.1,173.5z"/>
		<path class="st5" d="M456.5,263.7c3.7-2.1,7.3-4.2,11.6-4.7c9.1-1,14.6,3.8,14.6,12.8c0,5.3,0,10.6,0,15.9c0,2.7,0.7,4.5,3.9,4
			c1.7-0.3,2.2,0.5,2.2,2.2c0.1,5.6,0.2,5.6-5.6,5.6c-5.1,0-10.2-0.1-15.3,0.1c-2.2,0.1-2.9-0.6-2.6-2.7c0.1-1.1,0.1-2.2,0-3.2
			c-0.1-1.3,0.2-2.1,1.7-1.9c2.4,0.2,2.9-1.3,2.9-3.3c0-5.2,0-10.4,0-15.6c0-3.3-1.4-4.4-4.7-4c-2.6,0.3-4.6,1.8-6.7,3.1
			c-0.9,0.6-0.8,1.5-0.8,2.3c0,4.9,0,9.7,0,14.6c0,1.5,0.3,3,2.2,2.9c2.3-0.2,2.4,1.1,2.3,2.8c-0.1,0.8-0.1,1.5,0,2.3
			c0.3,2.3-0.5,3-2.8,2.9c-6-0.2-11.9-0.1-17.9,0c-1.9,0-2.9-0.4-2.6-2.5c0.1-1,0.1-2,0-2.9c-0.2-1.7,0.2-2.7,2.2-2.5
			c2.9,0.4,3.7-1.2,3.7-3.9c-0.1-5-0.1-10,0-14.9c0.1-2-0.4-3-2.6-2.8c-1.4,0.1-3.7,0.8-3.2-2c0.4-2.3-2.1-5.9,2.9-6.4
			c2.5-0.2,5.1-1.1,7.5-1.8C455.4,258.1,455.5,258.1,456.5,263.7z"/>
		<path class="st5" d="M212.8,354.1c3.6-2,7.1-4.1,11.3-4.6c9.5-1,14.9,3.5,15.1,13.1c0.1,5.5,0.1,11,0,16.6c0,2.2,0.9,3.3,3.1,3
			c2.5-0.4,3.3,0.6,2.9,3c-0.1,1-0.1,2,0,2.9c0.2,1.7-0.6,1.9-2.1,1.9c-6.5-0.1-13-0.1-19.5,0c-1.5,0-2.2-0.4-2-2
			c0.1-1.2,0.1-2.4,0-3.6c-0.1-1.5,0.1-2.5,2-2.3c2,0.2,2.6-1.1,2.6-2.9c0-5.4,0.1-10.8,0-16.2c-0.1-3.2-1.5-4.2-4.6-3.8
			c-2.6,0.3-4.6,1.7-6.7,3c-0.9,0.5-0.9,1.3-0.9,2.2c0,5,0,10,0,14.9c0,1.6,0.5,2.9,2.4,2.7c2-0.2,2.2,0.7,2.2,2.4
			c0,5.4,0.1,5.4-5.4,5.4c-5.1,0-10.2-0.1-15.3,0c-2.1,0.1-3-0.4-2.7-2.6c0.1-1.1,0.1-2.2,0-3.2c-0.2-1.6,0.5-2.2,2-2
			c3.1,0.4,4-1.2,3.9-4c-0.1-5-0.2-10,0-14.9c0.1-2.2-0.7-2.8-2.7-2.6c-1.3,0.1-3.6,0.8-3.1-1.8c0.5-2.3-2.3-5.9,2.7-6.5
			c2.9-0.4,5.7-1.2,8.5-2.1C211.8,348.4,212.2,348.6,212.8,354.1z"/>
		<path class="st5" d="M463.7,173.7c5.2-3.4,10.4-5.7,16.4-4.8c6.4,1,10,4.9,10.1,11.4c0,5.7,0.1,11.5,0,17.2c0,2.8,0.7,4.5,3.9,4
			c1.7-0.3,2.1,0.5,2.2,2.2c0.1,5.6,0.2,5.6-5.5,5.6c-5.1,0-10.2-0.1-15.3,0c-2.1,0.1-3-0.5-2.7-2.7c0.1-1.1,0.1-2.2,0-3.2
			c-0.1-1.3,0.2-2.1,1.7-2c2.4,0.2,2.9-1.1,2.9-3.2c-0.1-5.4,0-10.8,0-16.2c0-2.7-1.5-3.7-3.9-3.6c-5.1,0.1-8.2,3.4-8.2,8.4
			c0,3.9,0,7.8,0,11.7c0,1.6,0.3,3.2,2.5,3c1.7-0.2,2,0.7,1.9,2.1c-0.1,1.1-0.1,2.2,0,3.2c0.3,2-0.5,2.6-2.5,2.5
			c-5.9-0.1-11.9-0.1-17.9,0c-2.1,0-3-0.5-2.7-2.7c0.1-1.1,0.1-2.2,0-3.2c-0.2-1.6,0.5-2.1,2-2c3.1,0.4,3.9-1.4,3.9-4.1
			c-0.1-5-0.1-10,0-14.9c0.1-2-0.6-2.9-2.6-2.5c-3.2,0.6-3.3-1.1-3.4-3.6c-0.2-3.3,0.6-4.9,4.2-5c2.4-0.1,4.8-1.1,7.2-1.9
			C463,167.6,463.4,167.9,463.7,173.7z"/>
		<path class="st5" d="M145.3,173.6c4-2.5,7.8-4.5,12.3-4.9c8.8-0.8,14.1,3.9,14.2,12.7c0.1,5.5,0.1,11,0,16.6
			c0,2.4,0.7,3.9,3.3,3.5c2.4-0.3,3.1,0.7,2.8,2.9c-0.1,1-0.1,2,0,2.9c0.1,1.5-0.4,2.1-2,2c-6.5-0.1-13-0.1-19.5,0
			c-1.7,0-2-0.7-1.9-2.1c0.1-1.2,0.1-2.4,0-3.6c-0.1-1.4,0.1-2.3,1.9-2.2c2.1,0.2,2.6-1.2,2.6-2.9c0-5.5,0-11-0.1-16.6
			c0-3-1.9-3.9-4.6-3.5c-2.5,0.3-4.6,1.7-6.7,3.1c-1,0.7-1,1.6-1,2.6c0,4.7,0,9.3,0,14c0,1.5-0.1,3.2,2.1,3.4c5,0.4,1.7,4.1,2.3,6.2
			c0.7,2.4-1.7,1.6-2.8,1.6c-5.8,0.1-11.7,0-17.5,0.1c-2.1,0-3-0.4-2.7-2.6c0.2-1.1,0.1-2.2,0-3.2c-0.2-1.6,0.5-2.2,2-2
			c3.1,0.4,4-1.2,3.9-4c-0.1-4.9-0.1-9.7,0-14.6c0.1-2.2-0.5-3.3-2.8-2.9c-2.7,0.5-3-0.9-3.2-3.2c-0.3-3.6,0.6-5.3,4.5-5.5
			c2.3-0.1,4.6-1.1,6.9-1.8C144.5,167.7,144.9,167.9,145.3,173.6z"/>
		<path class="st5" d="M203.9,295.7c-4.4,2.3-7.8,4.3-11.9,4.8c-7.9,1-15.9-2.8-15.2-13.3c0.3-5.2,0-10.4,0.1-15.6
			c0-2.7-1-4.2-3.8-3.8c-1.8,0.2-2.1-0.5-2.2-2.2c-0.1-5.7-0.2-5.7,5.5-5.8c3.5,0,6.9,0,10.4-0.3c2.4-0.2,2.9,0.8,2.9,3
			c-0.1,7.4-0.1,14.7,0,22.1c0,2.5-0.5,5.5,3,6.4c2.2,0.6,8.4-2.1,9.3-3.9c0.3-0.5,0.2-1.3,0.2-1.9c0-4.4,0-8.9,0-13.3
			c0-2.8-0.9-4.5-3.9-4.1c-1.6,0.2-2-0.5-2-2c0.3-7-1.4-5.6,5.7-5.9c3.6-0.1,7.1-0.1,10.7-0.3c2-0.1,2.6,0.6,2.5,2.6
			c-0.1,8.6,0.1,17.1-0.1,25.7c0,2.9,0.7,4.4,3.8,4c1.8-0.3,2.1,0.6,2.2,2.2c0.1,5.4,0.2,5.4-5.2,5.7c-2.9,0.2-5.8,0.2-8.7,0.5
			C204.3,300.4,202.4,300,203.9,295.7z"/>
		<path class="st5" d="M172.8,385.9c-5.2,3.4-9.7,5.3-14.9,5.1c-7.1-0.3-11.4-4-11.9-11.1c-0.4-5.9-0.3-11.9-0.2-17.9
			c0-2.7-0.7-4.2-3.7-3.9c-2,0.3-2.5-0.7-2.3-2.4c0.1-0.5,0.1-1.1,0-1.6c-0.6-3.2,0.8-4,3.8-3.9c4.2,0.2,8.4,0,12.7-0.2
			c1.9-0.1,2.3,0.6,2.3,2.4c-0.1,7.8-0.1,15.6,0,23.4c0,5.2,2.5,6.8,7.3,5c4.5-1.8,5.2-2.7,5.2-7.6c0-3.8,0-7.6,0-11.4
			c0-2.4-0.8-3.9-3.4-3.6c-2,0.2-2.8-0.5-2.5-2.5c0.1-1,0.1-2,0-2.9c-0.2-1.8,0.4-2.5,2.3-2.4c4.7,0,9.3-0.1,14-0.3
			c2.2-0.1,2.7,0.7,2.7,2.8c-0.1,8.6,0,17.1-0.1,25.7c0,2.7,0.8,4.2,3.7,3.8c2-0.3,2.2,0.8,2.2,2.4c0,5.2,0.1,5.2-5,5.5
			c-2.8,0.2-5.6,0.2-8.4,0.4C173.9,390.7,171.3,390.8,172.8,385.9z"/>
		<path class="st5" d="M113.2,349.3c-10.4-0.2-19,5.2-21.5,13.9c-4.1,14,3.5,28,21.2,27.8c10.5,0,18.3-4.9,21.1-13.5
			C139,362.6,129.4,349.6,113.2,349.3z M119.7,377.5c-1.5,2.9-3.7,4.8-7.1,4.7c-3.4-0.1-5.6-2-6.8-5.1c-1.6-4.1-1.6-8.2-0.5-12.4
			c1.1-4.1,4.2-6.6,7.8-6.6c3.4,0.1,6.1,2.6,7.3,6.7c0.5,1.8,0.5,3.6,0.6,4.9C121.1,372.8,120.8,375.3,119.7,377.5z"/>
		<path class="st5" d="M438.2,180.4c-3.6-8.4-11-11.5-19.7-11.8c-10.4-0.4-19.2,5-21.9,13.4c-4.2,13.3,2.5,28.3,20,28.2
			c7.9,0,14.2-1.7,18.7-7.2C440.9,196.1,441.6,188.3,438.2,180.4z M422.9,199.2c-3.6,3.6-9.1,3.1-11.5-1.4
			c-2.8-5.3-2.7-10.8-0.2-16.2c1.3-2.7,3.7-4.2,6.8-4.1c3.1,0.1,5.2,1.9,6.5,4.6c1.2,2.4,1.5,4.9,1.4,7.1
			C425.9,193.1,425.5,196.5,422.9,199.2z"/>
		<path class="st5" d="M204.9,168.6c-13.1-0.1-22.1,8.3-22.2,20.6c-0.1,13,8.5,21.1,22.2,21.1c13.5,0,22.2-8.1,22.2-20.8
			C227.1,176.8,218.4,168.7,204.9,168.6z M212.1,195.9c-1.3,3.6-4.2,5.7-7.5,5.6c-3.3-0.1-6-2.2-7.1-6c-0.6-2-0.8-4-1-5.6
			c0.3-3,0.4-5.6,1.7-7.9c1.5-2.8,3.8-4.4,7-4.4c3.3,0,5.5,1.9,6.7,4.8C213.6,186.8,213.7,191.4,212.1,195.9z"/>
		<path class="st5" d="M410.2,259c-13.2,0-22.1,8.3-22.1,20.6c0,13.1,8.4,21,22.2,21c13.5,0,22.2-8.2,22.2-20.9
			C432.5,267.2,423.7,259,410.2,259z M416.1,288.8c-3.6,4.6-9.9,4.1-12.5-1.1c-2.4-4.9-2.4-10-0.3-15c1.3-3,3.7-4.8,7.1-4.8
			c3.4,0,5.6,2.1,6.9,5.1c1,2.2,1.1,4.6,1.1,7C418.4,283,418.1,286.2,416.1,288.8z"/>
		<path class="st5" d="M317.2,294c0-1.7-0.2-2.5-2.3-2.2c-2.8,0.5-4.3-0.9-4.2-3.8c0-2.7,0-5.4,0-8.1c0-2.7,0.1-5.4,0-8.1
			c-0.1-6.2-2.3-9.5-8.2-11.4c-7.1-2.3-14.1-1.8-20.8,1.6c-2,1.1-3.8,2.4-4.9,4.6c-1.7,3.3-0.8,6.9,2.1,8.5c3,1.6,6.5,0.5,8.4-2.6
			c0.4-0.7,0.7-1.6,1.2-2.3c1.4-2.7,3.9-3.8,6.8-2.9c3.5,1.1,2.9,4.1,3.1,6.7c0.2,2.7-2,1.7-3.2,1.9c-4.7,0.8-9.4,1.4-13.9,3.2
			c-5.5,2.3-8.3,7.1-7.3,12.3c1,5.1,5.6,8.7,11.3,9c4.7,0.3,8.9-1.2,12.9-3.5c1.1-0.6,1.8-1.1,3,0.1c2.6,2.8,6.1,3.5,9.8,3.4
			C317,300.2,317.3,299.8,317.2,294z M298.2,285.6c0.6,2.5-0.1,3.9-2.1,4.7c-2.4,1-4.8,2.2-7.4,0.5c-2.2-1.5-1.9-4.6,0.6-6.2
			c2.3-1.5,5-2,7.7-2.1C299.7,282.6,297.6,285,298.2,285.6z"/>
		<path class="st5" d="M324.6,203c-0.1-1.5-0.5-1.7-1.9-1.6c-3.5,0.3-4.5-0.8-4.6-4.2c-0.1-2.9,0-5.9,0-8.8c0-2.6,0-5.2,0-7.8
			c0.1-5.2-2.5-8.5-7.2-10.4c-5.1-2-10.3-2-15.6-0.9c-4.1,0.9-7.9,2.5-10.4,6c-1.6,2.3-2,4.8-0.4,7.3c1.3,2.2,3.5,2.7,5.9,2.5
			c3-0.4,4.3-2.6,5.4-5c1.5-3.1,3.7-4.2,6.8-3.5c3.7,0.9,3,3.9,3.2,6.5c0.2,2.9-2,1.9-3.3,2.1c-4.7,0.7-9.4,1.4-13.8,3.3
			c-5.5,2.3-8,6.9-7,12.5c0.8,4.7,5.6,8.5,11.1,8.8c4.7,0.3,9-1.1,12.9-3.5c1.3-0.8,2-0.9,3.2,0.3c2.5,2.5,5.7,3.3,9.2,3.2
			C324.4,209.8,325,209.2,324.6,203z M303.5,200c-2.4,0.9-4.8,2.2-7.3,0.5c-2.3-1.5-2-4.4,0.6-6.1c2.3-1.5,5-1.9,7.7-2.1
			c1.3-0.1,1.3,0,1.3,3.8C306,197.7,305.6,199.2,303.5,200z"/>
		<path class="st5" d="M256.3,195.9c2.4-5.6,4.4-10.5,6.4-15.3c0.9-2.1,0-3.3-2.1-3.1c-2.6,0.3-3.3-0.8-2.9-3.1c0.1-1,0.1-2,0-2.9
			c-0.1-1.4,0.4-1.9,1.8-1.9c5.8,0.1,11.7,0.1,17.5,0c1.3,0,2,0.3,1.9,1.8c-0.1,1.5,0,3,0,4.5c0,0.8-0.1,1.5-1.2,1.5
			c-3.1-0.1-4.2,2.1-5.3,4.5c-3.7,8.3-7.5,16.5-11.2,24.8c-0.8,1.9-1.9,2.4-4,2.8c-6.4,1-9.6-1.5-11.8-7.5
			c-2.5-7.1-6.2-13.8-9.3-20.6c-0.9-2.1-2-3.9-4.7-3.8c-1.2,0-1.3-0.6-1.4-1.6c-0.6-6.2-0.6-6.2,5.6-6.2c5.4,0,10.8,0.1,16.2,0
			c2,0,3.1,0.4,2.8,2.6c-0.1,0.8-0.1,1.7,0,2.6c0.2,1.7-0.1,2.9-2.3,2.7c-1.6-0.2-3,0.6-2.3,2.5C251.8,185,253.9,190.1,256.3,195.9z
			"/>
		<path class="st5" d="M269.4,391c-10.3,0-20-9.4-19.6-21.2c0.5-12.7,11.1-21.5,24.7-20.4c6.2,0.5,11.7,2.3,15.4,7.7
			c3.1,4.6,0.9,9.6-4.5,10.5c-2.7,0.4-4.9-0.5-6.4-2.8c-0.6-1-1.1-2.1-1.7-3.1c-2.3-4.1-6.6-4.8-9.9-1.5c-5.1,5-4.3,15.6,1.4,19.7
			c3.9,2.9,9.3,2.3,13.7-1.4c4.3-3.6,4.3-3.6,8.4,0.5c1,1,1,1.5,0.1,2.6C285.8,387.3,279.6,391,269.4,391z"/>
		<path class="st5" d="M124.8,279.8c0.1-11.9,9.1-20.5,21.9-20.8c6.5-0.2,12.5,1.3,17,6.4c4.2,4.7,2.6,10.6-3.2,11.8
			c-2.9,0.6-5.1-0.4-6.7-2.8c-0.5-0.8-0.9-1.7-1.4-2.6c-1.1-2.2-2.4-4.1-5.3-4.1c-2.9,0.1-5,1.5-6.3,3.9c-2.6,4.8-2.7,9.8,0,14.6
			c3.1,5.6,9.5,6.7,15.1,3c0.5-0.4,1.1-0.7,1.6-1.2c4.2-3.4,4.4-3.4,8.3,0.7c0.9,0.9,0.8,1.4,0.1,2.4c-7.7,10.8-24.3,12.9-34.3,4.2
			C126.9,291.2,124.7,286,124.8,279.8z"/>
		<path class="st5" d="M53,153.9c3.7,0,7.4,0.1,11,0c1.7-0.1,2.7,0.3,2.4,2.3c-0.1,1.1-0.1,2.2,0,3.2c0.2,1.9-0.6,2.5-2.4,2.3
			c-3.3-0.4-4.3,1.4-4.3,4.5c0.1,10.3,0.1,20.6,0,30.8c0,3.1,1,4.8,4.3,4.4c2.2-0.3,2.4,0.9,2.4,2.6c0,5.2,0.1,5.2-5,5.2
			c-6.5,0-13-0.1-19.5,0c-2.1,0-3-0.6-2.7-2.7c0.1-0.8,0.1-1.7,0-2.6c-0.2-1.9,0.3-2.9,2.4-2.6c3.2,0.5,4.3-1.3,4.3-4.2
			c0-10.4,0-20.8,0-31.2c0-2.9-1.1-4.8-4.4-4.4c-1.6,0.2-2.5-0.4-2.3-2.1c0.1-0.9,0.1-1.7,0-2.6c-0.5-2.7,0.9-3.2,3.3-3.1
			C46.1,154,49.6,153.9,53,153.9z"/>
		<path class="st5" d="M50.3,299.6c-3.7,0-7.4-0.1-11,0c-2.1,0.1-2.7-0.6-2.5-2.6c0.1-1,0.1-2,0-2.9c-0.2-1.8,0.4-2.4,2.3-2.4
			c3.7,0,4.4-0.7,4.4-4.7c0-10.1,0-20.1,0-30.2c0-4-0.6-4.7-4.6-4.8c-1.5-0.1-2.2-0.5-2.1-2.1c0.1-0.9,0.1-1.7,0-2.6
			c-0.4-2.5,0.5-3.3,3.1-3.3c7,0.2,14.1,0.2,21.1,0c2.2,0,3.2,0.5,2.9,2.8c-0.2,1.1-0.1,2.2,0,3.2c0.1,1.5-0.6,1.8-1.9,1.8
			c-4.4,0.3-4.7,0.6-4.7,5c0,10.2,0.1,20.3,0,30.5c0,3,1.1,4.6,4.2,4.2c2-0.2,2.7,0.5,2.5,2.5c-0.1,1.1-0.1,2.2,0,3.2
			c0.2,1.8-0.7,2.1-2.2,2.1C57.9,299.6,54.1,299.6,50.3,299.6z"/>
		<path class="st5" d="M326.5,279.5c0-2.8-0.1-5.6,0-8.4c0.1-2-0.5-2.9-2.5-2.5c-2.6,0.5-3.5-0.5-3.5-3.3c0-3,0.5-4.8,3.5-6.2
			c4.2-1.9,6.3-5.8,7.1-10.3c0.8-4.6,4.4-2,6.7-2.3c2.8-0.4,1.4,2.1,1.5,3.2c0.2,2.6,0.2,5.2,0,7.8c-0.1,1.9,0.3,2.7,2.5,2.6
			c2.8-0.2,5.6,0,8.4-0.1c1.5,0,2,0.4,2.1,2c0.3,6.6,0.4,6.6-6.3,6.6c-6.7,0-6.7,0-6.7,6.7c0,3-0.1,6.1,0,9.1c0.1,5.4,2,7.1,7.4,6.9
			c1.4-0.1,2.9-0.3,4-1c3.4-2.1,3.2-0.1,3.2,2.3c-0.1,5.3,0,5.3-5.2,6.8c-3.5,1-7.1,1.2-10.6,0.7c-7.8-0.9-11.7-5.4-11.8-13.2
			C326.5,284.5,326.5,282,326.5,279.5z"/>
		<path class="st5" d="M361.5,198.5c0,2.6-0.1,4.9,0,7.1c0.1,1.2-0.5,1.7-1.5,2.1c-5.7,2.5-11.5,3-17.4,1.4
			c-5.6-1.6-8.4-5.3-8.5-11.2c-0.1-5.6-0.1-11.3,0-16.9c0.1-2.3-0.7-3.2-2.9-2.8c-2.8,0.5-3-1-3.1-3.3c-0.1-3,0.4-4.8,3.5-6.2
			c4.1-2,6.3-5.9,7-10.4c0.3-2,1-2.6,2.9-2.4c1,0.1,2,0.1,2.9,0c2.1-0.3,2.6,0.6,2.5,2.5c-0.2,2.9,0.1,5.9-0.1,8.8
			c-0.1,1.8,0.4,2.5,2.3,2.4c2.8-0.2,5.6,0,8.4-0.1c1.5-0.1,2,0.4,2.1,2c0.3,6.6,0.4,6.6-6.2,6.6c-6.6,0-6.7,0-6.6,6.6
			c0,3.6,0,7.1,0.2,10.7c0.2,3.8,2,5.3,5.7,5.5C355.9,201.1,358.5,199.9,361.5,198.5z"/>
		<path class="st5" d="M344.1,356.3c0,7,0,14.1,0,21.1c0,3,0.5,5.3,4.3,4.8c1.5-0.2,1.8,0.5,1.8,1.9c0.4,5.9,0.4,5.9-5.6,5.9
			c-5.3,0-10.6-0.2-15.9,0.1c-2.9,0.1-3.6-0.9-3.2-3.4c0.1-0.7,0.1-1.5,0-2.3c-0.2-1.7,0.5-2.4,2.2-2.2c2.9,0.4,3.7-1.2,3.7-3.9
			c-0.1-10.9-0.1-21.9,0-32.8c0-2.2-0.7-2.9-2.8-2.7c-1.6,0.2-3.7,0.4-3-2.2c0.5-2.1-2.1-5.6,2.6-5.9c3.8-0.2,7.4-1.5,11-2.6
			c4.3-1.4,4.9-0.9,4.9,3.4C344.1,342.4,344.1,349.3,344.1,356.3z"/>
		<path class="st5" d="M377.7,275c0,4.5,0.1,9.1,0,13.6c-0.1,2.4,0.9,3.5,3.2,3.2c2.3-0.3,3.1,0.6,2.8,2.8c-0.1,1-0.1,2,0,2.9
			c0.2,1.8-0.6,2.1-2.2,2.1c-6.7-0.1-13.4-0.1-20.1,0c-1.7,0-2.7-0.3-2.4-2.3c0.1-0.8,0.1-1.7,0-2.6c-0.4-2.4,0.4-3.4,2.9-3
			c2,0.3,3-0.8,2.9-2.8c0-5.6-0.1-11.3,0-16.9c0.1-2.4-1.3-1.9-2.7-2c-1.4-0.1-3.7,0.8-3.2-2c0.4-2.1-2-5.6,2.9-5.8
			c3.8-0.1,7.4-1.2,11-2.7c3.7-1.6,4.9-0.7,4.9,3.2C377.7,266.7,377.7,270.9,377.7,275z"/>
		<path class="st5" d="M315.9,365.5c0,4.4,0.1,8.9,0,13.3c-0.1,2.5,0.8,3.7,3.4,3.4c2.2-0.3,2.9,0.5,2.6,2.6c-0.1,1.2-0.1,2.4,0,3.6
			c0.1,1.3-0.5,1.6-1.7,1.6c-7,0-14.1-0.1-21.1,0c-1.7,0-2.1-0.6-1.9-2.1c0.1-0.6,0.1-1.3,0-1.9c-0.3-2.6,0-4.4,3.4-3.9
			c1.8,0.3,2.5-0.9,2.5-2.6c0-5.7-0.1-11.5,0-17.2c0.1-2.4-1.5-1.7-2.8-1.9c-1.3-0.2-3.6,0.8-3-1.9c0.4-2.1-2.3-5.7,2.7-6
			c3.9-0.2,7.6-1.2,11.3-2.8c3.6-1.5,4.7-0.6,4.7,3.4C315.9,357.3,315.9,361.4,315.9,365.5z"/>
		<path class="st5" d="M385,184.5c0,4.4,0.1,8.9,0,13.3c-0.1,2.6,0.8,4,3.6,3.6c2-0.3,2.8,0.4,2.5,2.5c-0.1,1-0.1,2,0,2.9
			c0.3,2.1-0.6,2.5-2.6,2.5c-6.5-0.1-13-0.1-19.5,0c-2.1,0-3-0.5-2.7-2.7c0.1-1,0.1-2,0-2.9c-0.1-1.6,0.2-2.5,2.1-2.3
			c3.1,0.5,3.9-1.2,3.8-4c-0.1-5.1-0.1-10.2,0-15.3c0-2-0.6-2.7-2.6-2.6c-1.4,0.1-3.7,0.8-3.3-2c0.3-2.2-1.8-5.6,3-5.8
			c3.8-0.1,7.4-1.3,11-2.7c3.6-1.5,4.6-0.7,4.6,3.1C385,176.3,385,180.4,385,184.5z"/>
		<path class="st5" d="M269.2,429.5c0-2.1-0.1-4.1,0-6.2c0.2-2.2,2.1-3.1,3.6-1.5c1,1.1,1.5,0.8,2.5,0.2c2.3-1.4,4.8-1.5,6.9,0.3
			c1.1,0.9,1.7,0.6,2.7,0c4.7-2.8,9-0.7,9.3,4.7c0.2,2.9,0.1,5.8,0,8.7c0,1.4-0.7,2.5-2.4,2.4c-1.6-0.1-2.3-1.1-2.3-2.6
			c-0.1-2.6,0-5.2,0-7.8c0-1.6-0.1-3.3-2.2-3.2c-1.8,0.1-2.9,1.3-3,3.2c-0.1,2.3,0,4.5-0.1,6.8c0,1.7-0.2,3.4-2.4,3.5
			c-2.4,0.1-2.4-1.8-2.4-3.4c-0.1-2.5,0-5-0.1-7.5c0-1.3-0.3-2.7-2.1-2.7c-1.4,0-2.4,0.6-2.9,2.1c-0.9,2.7-0.3,5.4-0.4,8
			c-0.1,1.7-0.1,3.5-2.4,3.4c-2.3,0-2.3-1.8-2.3-3.5C269.1,432.9,269.1,431.2,269.2,429.5C269.1,429.5,269.1,429.5,269.2,429.5z"/>
		<path class="st5" d="M533.1,429.4c0-2.1-0.1-4.1,0-6.2c0.2-2.2,2.1-3.1,3.6-1.5c1.1,1.2,1.5,0.8,2.5,0.2c2.3-1.3,4.8-1.5,6.9,0.3
			c1.2,1,1.7,0.5,2.7-0.1c4.7-2.8,8.9-0.6,9.2,4.8c0.2,2.9,0.1,5.8,0,8.7c0,1.4-0.7,2.5-2.4,2.4c-1.6-0.1-2.3-1.1-2.3-2.6
			c-0.1-2.6,0-5.2,0-7.8c0-1.6-0.2-3.3-2.2-3.2c-1.8,0.1-2.9,1.3-3,3.2c0,2.3,0,4.5-0.1,6.8c0,1.7-0.2,3.4-2.4,3.5
			c-2.4,0.1-2.3-1.9-2.4-3.4c-0.1-2.5,0-5-0.1-7.5c0-1.2-0.3-2.5-1.8-2.7c-1.6-0.2-2.6,0.5-3.2,2.1c-0.9,2.7-0.3,5.4-0.4,8
			c-0.1,1.7-0.1,3.4-2.4,3.4c-2.3,0-2.3-1.8-2.3-3.5C533.1,432.9,533.1,431.2,533.1,429.4C533.1,429.4,533.1,429.4,533.1,429.4z"/>
		<path class="st5" d="M79.2,438.1c-3.7,0.1-6.9-1-8.7-4.4c-0.7-1.3-1.1-3.1,0.6-4c1.7-0.8,2.7,0.2,3.5,1.8c1.7,3.3,4.2,4.1,7.2,2.6
			c1.2-0.6,2-1.4,2-2.7c0-1.3-0.8-2.2-2.1-2.6c-2-0.6-4.1-1.2-6.2-1.8c-3-0.9-5.2-2.7-5.2-6.2c0-2.9,2.2-5.4,5.8-6
			c3.7-0.7,7.4-0.7,10.2,2.4c1.3,1.4,2.3,3.2,0.3,4.8c-2,1.6-2.8-0.3-3.6-1.7c-0.8-1.4-2-2.2-3.6-2.3c-1.8,0-3.8,0.3-4.2,2.2
			c-0.5,2.1,1.5,2.5,3.1,2.9c1.5,0.4,3.1,0.8,4.7,1.3c4.5,1.4,6.1,3.6,5.7,7.4c-0.4,3.4-3.2,5.8-7.1,6.3
			C80.7,438.2,79.9,438.1,79.2,438.1z"/>
		<path class="st5" d="M236.2,438.2c-4.9,0-8.5-2.5-10.2-7c-2-5.2-0.8-10.8,2.9-14c3.5-2.9,9-3.5,13-1.2c1.9,1.1,3.5,2.5,4,4.8
			c0.3,1.2,0,2.2-1.1,2.8c-1.2,0.7-2.1,0-2.8-0.9c-0.8-1.1-1.5-2.4-2.7-3.2c-2.5-1.5-5.7-0.9-7.5,1.5c-2.3,2.9-2.1,9,0.3,11.5
			c2,2,5.4,2.3,7.7,0.6c1.1-0.8,1.6-2,2.2-3.2c0.6-1.1,1.5-2,2.9-1.3c1.1,0.6,1.6,1.5,1.2,3C245.2,435.5,241.3,438.2,236.2,438.2z"
			/>
		<path class="st5" d="M499.6,438.2c-5,0-8.5-2.4-10.2-6.9c-2-5.2-0.8-10.8,2.9-14c3.5-3,8.9-3.5,13-1.3c1.8,1,3.3,2.4,3.9,4.5
			c0.4,1.2,0.3,2.4-1,3.1c-1.4,0.8-2.2-0.1-3-1.1c-0.5-0.7-1-1.4-1.5-2.1c-0.7-0.9-1.7-1.3-2.8-1.6c-3-0.7-5.8,1.1-6.9,4.4
			c-1.5,4.4,0,9.1,3.2,10.4c3.2,1.3,5.9,0.3,7.7-3.1c0.7-1.3,1.4-2.7,3.1-1.9c1.8,0.8,1.6,2.3,1,3.9
			C507.8,436,504.2,438.2,499.6,438.2z"/>
		<path class="st5" d="M210.3,425.4c3.1-3.6,3.4-6.6,0.8-8.9c-3-2.7-8.8-2.6-11.5,0.3c-2.6,2.8-2.4,5.4,0.8,8.6
			c-3.3,2.6-4.1,4.8-2.9,8c1.2,3.3,4,4.8,8.6,4.7c3.8-0.1,6.4-1.9,7.4-5.1C214.4,429.8,213.6,427.7,210.3,425.4z M205.2,418
			c1.9-0.1,3,0.9,3.4,2.7c-0.3,1.8-1.4,2.9-3.2,2.9c-1.6,0-3-0.7-3.1-2.6C202.1,419.1,203.4,418.2,205.2,418z M205.5,434.7
			c-2.4,0-3.7-1.5-3.9-3.9c0.3-2.2,1.4-3.6,3.7-3.6c2.4,0,3.9,1.4,3.8,3.9C209.1,433.2,207.8,434.7,205.5,434.7z"/>
		<path class="st5" d="M403.2,424.1c0,1.2-0.1,2.4,0,3.6c0.8,8.9-5.8,11.8-13.4,10.1c-4.1-0.9-6.1-3.4-6.2-7.6
			c-0.1-4.2,0-8.4-0.1-12.7c0-1.6,0.4-2.8,2.2-2.9c2.1-0.1,2.6,1.2,2.6,2.9c0,3.7,0,7.4,0,11c0.1,2.8,0.8,5.2,4.2,5.5
			c3.6,0.4,5.6-1.3,5.7-5.3c0.1-3.5,0-6.9,0-10.4c0-1.7-0.2-3.8,2.3-3.8c2.8-0.1,2.5,2.1,2.5,3.9
			C403.2,420.4,403.2,422.3,403.2,424.1z"/>
		<path class="st5" d="M58.7,434.8c-2.5-6.1-4.8-12.2-7.5-18.2c-1.3-2.9-5-2.9-6.3,0.1c-2.7,6-5,12.2-7.5,18.2
			c-0.7,1.6,0.2,2.6,1.5,3.1c1.3,0.5,2.3,0,2.8-1.4c0.2-0.6,0.6-1.2,0.7-1.8c0.4-2,1.5-2.6,3.6-2.6c3.8,0,7.6-0.7,8.5,4.6
			c0.2,1.2,1.5,1.5,2.7,1.2c1.2-0.3,1.7-1.2,1.8-2.4C59,435.4,58.9,435.1,58.7,434.8z M44.8,428.8c1-2.9,1.9-5.6,3.1-9.1
			c1.2,3.4,2.3,6.1,3.4,9.1H44.8z"/>
		<path class="st5" d="M695.5,435.3c-2.8-6.3-4.9-13.2-8.4-19.5c-1.1-2-4.6-1.5-5.6,0.8c-2.7,6.1-5.1,12.3-7.6,18.5
			c-0.6,1.4,0.2,2.4,1.3,2.9c1.2,0.6,2.3,0.2,2.9-1.1c0.5-1.1,1-2.2,1.3-3.3c0.3-0.9,0.7-1.3,1.6-1.2c2.6,0,5.3-0.3,7.7,0.2
			c1.4,0.3,1.2,2.8,2.2,4.1c0.2,0.3,0.3,0.6,0.5,0.8c0.7,0.9,1.7,0.9,2.7,0.5C695,437.5,695.6,436.7,695.5,435.3z M681.3,428.8
			c1-2.9,1.9-5.6,3-8.7c1.7,2.9,2.3,5.9,3.5,8.7H681.3z"/>
		<path class="st5" d="M313.2,423.7c-2.4-2.9-5.8-3.5-9.5-1.3c-0.9,0.6-1.4,0.7-1.9-0.4c-0.5-1.1-1.5-1.2-2.5-0.9
			c-1.1,0.3-1.4,1.3-1.4,2.3c0,6.3,0,12.5,0,18.8c0,1.2,0.4,2.3,2,2.4c1.6,0,2.2-1,2.3-2.2c0.2-1.9,0-3.9,0-6.3
			c0.6,0.3,0.9,0.4,1.2,0.6c3.5,2.2,7.2,1.8,9.6-1C315.7,432.7,315.8,426.8,313.2,423.7z M306.7,434.8c-2.4,0.1-4.2-2.2-4.2-5.1
			c0-3,1.8-5.2,4.2-5.1c2.2,0.1,3.8,2.2,3.8,5.1C310.5,432.5,308.9,434.7,306.7,434.8z"/>
		<path class="st5" d="M577.3,423.9c-2.4-3.1-5.7-3.7-9.7-1.4c-1.1,0.6-1.4,0.4-1.9-0.5c-0.6-1-1.6-1.1-2.6-0.8
			c-1.1,0.4-1.4,1.3-1.4,2.3c0,6.2,0,12.3,0,18.5c0,1.4,0.4,2.6,2.2,2.6c1.7,0,2.2-1.3,2.3-2.6c0.1-1.8,0-3.7,0-5.6
			c0.5,0,0.6,0,0.7,0c3.9,2.5,7.4,2.3,9.9-0.5C579.5,433,579.8,427,577.3,423.9z M570.5,434.8c-2.3,0-4.2-2.3-4.1-5.2
			c0-3,1.9-5.2,4.3-5c2.2,0.1,3.8,2.3,3.8,5.2C574.4,432.6,572.8,434.7,570.5,434.8z"/>
		<path class="st5" d="M771.2,418.6c-1.6-2.8-3.9-4.2-7.2-4c-3.1,0.1-5.5,1.5-6.6,4.4c-1.8,4.8-2.1,9.7,0,14.5
			c1.3,3,3.7,4.7,7.1,4.7c3.5,0,5.7-1.8,7.1-4.7c1.1-2.2,1.1-4.6,1.1-7.3C772.6,423.8,772.7,421.1,771.2,418.6z M767.5,432.1
			c-0.3,1.4-1.2,2.6-2.9,2.6c-1.8,0.1-2.8-1.2-3.2-2.7c-1-3.7-0.9-7.5,0-11.2c0.4-1.6,1.3-2.8,3.1-2.8c1.8,0,2.7,1.3,3.1,2.8
			c0.4,1.9,0.5,3.8,0.7,5.8C768,428.5,767.9,430.3,767.5,432.1z"/>
		<path class="st5" d="M443.5,417.3c0-1.4-0.2-2.6-2-2.7c-1.7-0.1-2.2,1.1-2.3,2.5c-0.1,1.8,0,3.6,0,5.5c-0.6,0-0.8,0-1-0.1
			c-4.4-2.2-7.9-1.8-10.2,1.1c-2.3,3-2.2,8.8,0.1,11.9c2.4,3.1,5.2,3.5,9.7,1.2c0.9-0.5,1.2-0.5,1.6,0.4c0.5,1,1.5,1.2,2.5,0.9
			c1.3-0.4,1.4-1.4,1.4-2.6C443.5,429.4,443.5,423.4,443.5,417.3z M435,434.8c-2.4,0-4-2-4-5.2c0-3,1.6-5,3.8-5c2.4,0,4,2.2,4,5.3
			C438.9,432.7,437.3,434.7,435,434.8z"/>
		<path class="st5" d="M742.8,434.1c3.1,0,5.6,0,8,0c1.5,0,2.7,0.4,2.7,2.1c0,1.7-1.3,2-2.7,2c-3.5,0-6.9,0-10.4,0
			c-1.2,0-2.5,0.1-3.1-1.3c-0.5-1.3-0.2-2.6,0.7-3.7c2-2.3,4.1-4.4,6.6-6.2c1.3-1,2.7-2,3.3-3.5c0.9-1.9,1-3.8-1.3-5
			c-2.1-1.1-3.7-0.3-4.8,1.7c-0.9,1.6-1.5,4.5-3.9,2.6c-1.9-1.5-0.6-3.8,0.8-5.4c2.8-3.4,9.5-3.7,12.6-0.6c2.9,2.9,2.4,7.5-1.2,10.9
			C747.8,429.6,745.2,431.2,742.8,434.1z"/>
		<path class="st5" d="M802.7,438.2c-3.6,0-6.5-2-7.7-4.9c-0.6-1.4-0.5-2.6,1-3.3c1.4-0.8,2.2,0.1,2.7,1.3c0.3,0.6,0.6,1.2,0.9,1.7
			c1.1,1.6,2.6,2.2,4.5,1.4c1.8-0.8,2.5-2.2,2.3-4.2c-0.2-2.1-1.5-3-3.5-3.1c-0.3,0-0.6,0-1,0c-1.3,0.1-2.9,0.2-2.9-1.7
			c0-1.5,1.3-1.8,2.6-1.8c0.5,0,1.1,0,1.6-0.2c1.1-0.5,2.2-1,2.3-2.5c0.1-1.2-0.4-2.1-1.5-2.7c-1.1-0.6-2.2-0.6-3.4,0.2
			c-0.8,0.5-1.1,1.3-1.5,2c-0.6,1.1-1.5,1.6-2.7,0.9c-1.1-0.6-1.5-1.5-0.9-2.7c1.1-2.6,3.2-3.8,5.8-4.1c3-0.4,5.9,0,7.8,2.7
			c1.5,2.2,1.2,4.5-0.5,6.6c-0.7,0.8-0.9,1.3,0.1,2c2.6,2,3.1,4.7,1.8,7.5C809.1,436.8,806.2,438.2,802.7,438.2z"/>
		<path class="st5" d="M333.9,435.4c-0.6-1.9-0.8-3.8-0.5-6.5c-0.2-2.1,0.5-5.5-2.8-6.9c-3.6-1.6-7.4-1.5-10.9,0.6
			c-1.3,0.8-2.6,2.1-1.4,3.7c1.2,1.7,2.6,0.8,3.7-0.5c1.2-1.4,2.8-1.5,4.5-1.3c1,0.1,2,0.6,2,1.7c0,1.1-1.1,1.1-1.9,1.3
			c-2.1,0.5-4.2,0.8-6.3,1.5c-2,0.7-3.2,2.1-3.2,4.4c0,2.4,1.4,3.9,3.5,4.5c2.2,0.7,4.6,0.5,6.5-1c1.4-1,2.3-1.2,3.3,0.4
			c0.6,1,1.6,1.1,2.5,0.6C333.9,437.3,334.3,436.5,333.9,435.4z M328.8,431.1c-0.4,2.7-2.1,3.5-4.3,3.6c-1.3,0.1-2.4-0.5-2.5-1.9
			c-0.1-1.3,3.5-2.8,6-2.7C329,430.1,328.7,430.7,328.8,431.1z"/>
		<path class="st5" d="M597.8,435.2c-0.6-1.7-0.7-3.6-0.5-6.2c-0.2-2.1,0.6-5.5-2.6-7c-3.7-1.7-7.6-1.6-11.1,0.7
			c-1.2,0.8-2.5,2.2-1.2,3.8c1.2,1.4,2.5,0.7,3.5-0.5c1.3-1.5,3-1.6,4.8-1.4c0.9,0.1,1.7,0.6,1.8,1.6c0.1,1.2-1,1.2-1.7,1.4
			c-2.1,0.6-4.2,0.8-6.3,1.5c-2.1,0.7-3.4,2.1-3.3,4.6c0.1,2.4,1.6,3.8,3.6,4.4c2.2,0.7,4.6,0.3,6.5-1.1c1.3-1,2.2-1.1,3,0.4
			c0.6,1,1.5,1.3,2.5,0.7C597.9,437.4,598.3,436.5,597.8,435.2z M588.4,434.7c-1.2,0.1-2.2-0.4-2.5-1.6c-0.4-1.4,0.6-1.9,1.8-2.2
			c1.6-0.3,3.1-0.7,5-1.1C592.9,433.3,591.1,434.5,588.4,434.7z"/>
		<path class="st5" d="M104.1,433c-0.7,0.5-1.5,0.9-2.2,1.3c-2.9,1.2-4.9,0.1-6-3.3c2.8,0,5.6,0,8.4,0c3.3-0.1,4.2-1.5,3.2-4.6
			c-1.1-3.4-3.9-5.3-8-5.3c-4.2,0-6.9,2-8,5.7c-1.2,3.8,0.1,7.8,3,9.9c3.3,2.2,9.2,1.9,11.8-0.6c0.9-0.9,1.7-1.9,0.9-3.1
			C106.3,431.5,105.2,432.4,104.1,433z M99.9,424.6c2.1,0.2,3.3,1.4,3.3,3.7h-7.4C96.3,425.8,97.6,424.4,99.9,424.6z"/>
		<path class="st5" d="M459.8,433c-0.6,0.4-1.3,0.8-1.9,1.2c-3.1,1.4-5.2,0.4-6.4-3.2c3,0,5.8,0.1,8.7,0c2.9-0.1,3.8-1.4,3-4.3
			c-0.9-3.4-3.7-5.5-7.4-5.6c-4.6-0.1-7.5,1.7-8.7,5.7c-1.2,3.8,0,7.8,2.9,9.9c3.3,2.3,9.1,2,11.8-0.6c1-0.9,1.9-2.1,0.8-3.4
			C461.7,431.6,460.7,432.4,459.8,433z M454.9,424.6c2.3-0.2,3.6,1,4.1,3.7h-7.5C451.7,426.1,452.8,424.7,454.9,424.6z"/>
		<path class="st5" d="M642.6,432.9c-0.6,0.4-1.2,0.9-1.9,1.2c-3.1,1.5-5.1,0.6-6.7-3.1c3.1,0,5.9,0,8.7,0c3.1-0.1,4-1.4,3.2-4.4
			c-1.2-4.2-5.4-6.4-10.1-5.4c-4.4,1-7.1,5.1-6.3,9.9c0.5,3.4,2.4,5.8,5.8,6.7c3.5,0.9,6.9,0.6,9.7-2c0.8-0.8,1.4-1.9,0.6-2.9
			C644.6,431.7,643.6,432.3,642.6,432.9z M638,424.5c2.1,0.1,3.3,1.3,3.5,3.6h-7.5C634.6,425.8,635.7,424.4,638,424.5z"/>
		<path class="st5" d="M363.9,433.1c1.3-3.6,2.4-6.6,3.5-9.7c0.5-1.3,1.1-2.8,3-2.2c1.8,0.6,1.5,2,1,3.5c-2.1,5.4-4.1,10.9-6.4,16.2
			c-1.4,3.3-4.2,4.5-7.7,3.7c-1.1-0.3-2.1-0.8-2-2.1c0.1-1.3,1.2-1.2,2.2-1.3c3.3-0.2,4.5-2.1,3.3-5.1c-1.5-3.8-3-7.6-4.6-11.4
			c-0.7-1.6-0.6-2.8,1-3.5c1.7-0.7,2.6,0.4,3.1,1.9C361.4,426.4,362.5,429.5,363.9,433.1z"/>
		<path class="st5" d="M378.4,248.7c0,4.2-3.3,7.4-7.4,7.4c-4-0.1-7.2-3.2-7.2-7.3c-0.1-4.1,3.3-7.5,7.3-7.6
			C375.1,241.2,378.4,244.6,378.4,248.7z"/>
		<path class="st5" d="M371.3,158.3c0-4.1,3.4-7.5,7.4-7.4c4,0.1,7.3,3.5,7.2,7.6c-0.1,4-3.4,7.2-7.3,7.2
			C374.4,165.7,371.3,162.5,371.3,158.3z"/>
		<path class="st5" d="M316.7,339.1c0,4.1-3.4,7.4-7.5,7.3c-4-0.1-7.1-3.3-7.2-7.3c0-4.1,3.3-7.5,7.3-7.5
			C313.4,331.6,316.7,335,316.7,339.1z"/>
		<path class="st5" d="M158.7,421.1c-5.2,0-8.6,3.2-8.7,8.3c-0.1,5.2,3.3,8.7,8.6,8.8c5.4,0,8.8-3.2,8.9-8.5
			C167.5,424.5,164.1,421.1,158.7,421.1z M158.8,434.8c-2.5,0.1-4.1-2-4.1-5.2c0-3.2,1.7-5.2,4.2-5.1c2.4,0.1,4,2,4,5
			C162.9,432.6,161.3,434.7,158.8,434.8z"/>
		<path class="st5" d="M257.5,421.1c-5.2,0-8.6,3.2-8.7,8.3c-0.1,5.2,3.3,8.7,8.6,8.7c5.4,0,8.8-3.2,8.8-8.5
			C266.3,424.5,262.9,421.1,257.5,421.1z M257.6,434.8c-2.5,0-4.1-2-4.1-5.2c0-3.2,1.7-5.2,4.2-5.1c2.4,0.1,3.9,2.1,4,5
			C261.7,432.6,260.1,434.7,257.6,434.8z"/>
		<path class="st5" d="M520.9,421.1c-5.4,0-8.8,3.3-8.8,8.6c0,5.1,3.4,8.4,8.6,8.5c5.4,0,8.8-3.2,8.9-8.4
			C529.6,424.5,526.2,421.1,520.9,421.1z M520.9,434.8c-2.5,0.1-4.1-1.9-4.1-5.1c0-3.2,1.6-5.2,4.1-5.1c2.5,0.1,4.1,2.2,4.1,5.3
			C524.9,432.7,523.3,434.7,520.9,434.8z"/>
		<path class="st5" d="M337.5,429.4c0-1.9,0-3.9,0-5.8c0-1,0.3-2,1.4-2.3c1-0.3,2-0.2,2.5,0.9c0.6,1.3,1.1,0.7,1.9,0.2
			c5.6-3.1,9.8-0.6,9.8,5.9c0,2.3,0,4.5,0,6.8c0,1.6-0.1,3.2-2.3,3.1c-2-0.1-2.3-1.6-2.3-3.3c0-2.2,0-4.3,0-6.5
			c0-1.8-0.1-3.7-2.5-3.8c-2.3-0.1-3.6,1.4-3.8,3.6c-0.2,2.3-0.1,4.5-0.1,6.8c0,1.6-0.2,3.2-2.3,3.2c-2.1,0-2.3-1.6-2.4-3.2
			C337.4,433.1,337.4,431.3,337.5,429.4C337.4,429.4,337.4,429.4,337.5,429.4z"/>
		<path class="st5" d="M601.4,429.5c0-2.1-0.1-4.1,0-6.2c0.2-2.1,2.2-3.1,3.3-1.7c1.3,1.5,1.9,1,3.2,0.3c4.5-2.5,9,0.2,9.1,5.2
			c0.1,2.8,0,5.6,0,8.4c0,1.5-0.5,2.6-2.2,2.6c-1.6,0-2.3-1.1-2.4-2.5c-0.1-2.5,0-5,0-7.5c0-1.7-0.3-3.4-2.4-3.6
			c-2.2-0.2-3.6,1.1-3.9,3.2c-0.3,2.2-0.2,4.5-0.2,6.8c0,1.6,0.2,3.5-2.2,3.6c-2.5,0-2.4-2-2.5-3.7
			C601.4,432.8,601.4,431.1,601.4,429.5C601.4,429.5,601.4,429.5,601.4,429.5z"/>
		<path class="st5" d="M170.4,429.5c0-2.1-0.1-4.1,0-6.2c0.2-2.1,2.2-3.1,3.3-1.7c1.3,1.5,1.9,1,3.2,0.3c4.5-2.5,9,0.2,9.1,5.2
			c0.1,2.8,0,5.6,0,8.4c0,1.5-0.5,2.6-2.2,2.6c-1.6,0-2.3-1.1-2.4-2.5c-0.1-2.5,0-5,0-7.5c0-1.7-0.3-3.4-2.4-3.6
			c-2.2-0.2-3.6,1.1-3.9,3.1c-0.3,2.3-0.2,4.8-0.2,7.1c0,1.6,0,3.2-2.2,3.3c-2.3,0.1-2.5-1.7-2.5-3.4
			C170.3,433,170.4,431.3,170.4,429.5C170.4,429.5,170.4,429.5,170.4,429.5z"/>
		<path class="st5" d="M407.7,429.5c0-1.9,0-3.9,0-5.8c0-1,0.3-2,1.4-2.4c1-0.4,2-0.2,2.5,0.8c0.6,1.2,1,0.8,1.9,0.3
			c5.6-3.1,9.8-0.6,9.9,5.8c0,2.4,0,4.8,0,7.1c0,1.6-0.3,2.9-2.2,2.9c-1.8,0-2.3-1.3-2.3-2.9c0-2.4,0-4.8,0-7.1
			c0-1.7-0.3-3.4-2.5-3.5c-2.2-0.1-3.5,1.2-3.8,3.2c-0.3,2.2-0.1,4.5-0.2,6.8c0,1.6,0.1,3.5-2.2,3.5c-2.3,0-2.4-1.8-2.4-3.5
			C407.6,432.9,407.6,431.2,407.7,429.5C407.7,429.5,407.7,429.5,407.7,429.5z"/>
		<path class="st5" d="M655.1,421c2.4,0,4.6,0.5,6.2,2.2c0.9,0.9,1.8,2.2,0.6,3.4c-1.3,1.3-2.5,0.8-3.5-0.5c-1-1.3-2.3-1.9-4-1.6
			c-0.7,0.1-1.5,0.4-1.7,1.3c-0.1,1.1,0.8,1.2,1.5,1.4c1.9,0.6,4,0.9,5.9,1.7c3.7,1.5,4.2,5.4,1,7.8c-2.8,2.1-9,1.9-11.6-0.4
			c-1.3-1.2-2.3-2.6-0.8-4.2c1.5-1.5,2.4-0.2,3.4,1c0.5,0.6,1.3,1.2,2.1,1.4c1.6,0.4,3.6,0.7,4.2-1.2c0.6-2-1.7-1.8-2.9-2.3
			c-1.2-0.5-2.5-0.6-3.7-1c-1.9-0.7-3.7-1.8-3.6-4.1c0-2.5,1.8-3.8,4-4.5C653.2,421.2,654.2,421.2,655.1,421z"/>
		<path class="st5" d="M705.9,438.2c-4,0-6.7-1.8-7.9-5.6c-1.2-3.9,0.2-8.1,3.2-10.1c3.1-2,8.3-1.8,11,0.5c1.2,1.1,2.7,2.5,1.3,4.1
			c-1.5,1.7-2.7,0.4-3.9-0.9c-1.9-2.1-4.2-2.2-5.9-0.4c-2,2-1.9,6.2,0.1,8c1.8,1.6,4.2,1.4,6-0.6c0.3-0.3,0.5-0.7,0.8-1.1
			c0.7-0.9,1.5-1.6,2.7-0.8c1.2,0.9,1.2,2.1,0.6,3.2C712.2,437.2,709.5,438.2,705.9,438.2z"/>
		<path class="st5" d="M119.5,438.2c-4.7,0-7.4-1.8-8.5-5.7c-1.2-3.9,0.2-8.1,3.3-10.1c3.1-2,8.3-1.8,10.9,0.6
			c1.2,1.1,2.7,2.5,1.2,4.1c-1.5,1.7-2.7,0.3-3.9-1c-1.9-2.1-4.2-2.2-5.9-0.4c-1.9,2-1.9,6.2,0.2,8c1.8,1.6,4.2,1.4,6-0.7
			c1-1.2,1.9-3.3,3.7-1.5c1.8,1.8,0.3,3.4-1.2,4.6C123.6,437.7,121.5,438.3,119.5,438.2z"/>
		<path class="st5" d="M723.6,438.1c-3.5,0-4.7-1-5-4.5c-0.2-2.1-0.1-4.3-0.1-6.5c0-1.2,0.3-2.5-1.5-3c-1-0.3-1.2-2.1-0.3-2.4
			c2.3-0.8,1.7-2.5,1.9-4.1c0.1-1.6,0.5-3.1,2.6-3c1.9,0.1,2.1,1.6,2,3.1c0,1.8-0.4,3.7,2.5,3.5c0.6,0,1.1,0.8,1.1,1.4
			c0,1-0.7,1.7-1.6,1.7c-2-0.1-1.9,1.1-1.9,2.5c0.1,1.9,0,3.9,0,5.8c0,1.4,0.6,2.3,2.2,2c1.3-0.3,2.6-0.3,2.6,1.4
			c0,1.4-1.4,1.8-2.5,2C724.9,438.2,724.2,438.1,723.6,438.1z"/>
		<path class="st5" d="M136.1,438.1c-3.6,0.1-4.9-1-5.2-4.6c-0.2-1.9,0-3.9-0.1-5.8c0-1.4,0.5-2.9-1.6-3.6c-1-0.3-1.1-2.1-0.1-2.4
			c2.2-0.7,1.6-2.4,1.8-3.9c0.1-1.6,0.4-3.2,2.4-3.2c2.1,0,2.2,1.7,2.2,3.3c0.1,1.6-0.7,3.6,2.3,3.3c0.7-0.1,1.3,0.8,1.2,1.7
			c-0.1,1-0.8,1.6-1.8,1.6c-1.8-0.1-1.8,1-1.8,2.3c0.1,1.9,0,3.9,0,5.8c0,1.3,0.3,2.5,2,2.2c1.2-0.2,2.6-0.5,2.8,1.2
			c0.1,1.6-1.4,1.9-2.7,2.2C137.2,438.2,136.6,438.1,136.1,438.1z"/>
		<path class="st5" d="M782.8,421.7c-1.8,1.1-3.1,2-4.4,2.6c-1,0.5-1.9,0.2-2.5-0.8c-0.6-1.1-0.1-1.9,0.9-2.4
			c2.9-1.4,5.3-3.2,7.2-5.8c1.2-1.6,3.2-0.7,3.3,1.4c0.2,6.4,0.1,12.8,0,19.1c0,1.3-0.7,2.3-2.2,2.3c-1.6,0-2.3-1-2.3-2.5
			C782.8,431.1,782.8,426.6,782.8,421.7z"/>
		<path class="st5" d="M821.8,415c2.1-0.8,3.1,0.1,4,1.3c5.7,7.6,5.7,19.1,0,26.6c-0.9,1.2-1.8,2.1-3.9,1.4
			C827,434.6,827.1,424.8,821.8,415z"/>
		<path class="st5" d="M26.1,414.6c1.7,0.3,0.5,1.4,0.2,2.2c-1.9,4.2-3,8.5-3,13.1c0,4.4,1.2,8.5,3,12.4c0.3,0.7,1.3,1.6,0.1,2.2
			c-0.9,0.5-1.9-0.1-2.6-0.9c-2.5-3.3-4.2-7-4.8-11.1c-0.8-5.9,0.8-11.3,4.2-16.2C23.8,415.5,24.5,414.6,26.1,414.6z"/>
		<path class="st5" d="M466.9,429.5c0-1.9-0.1-3.9,0-5.8c0.2-2.6,1.9-3.4,3.9-1.8c1.1,0.8,1.4,0.2,2-0.2c1.6-1,3.3-0.8,4.9,0
			c0.9,0.5,1.7,1.1,1.2,2.3c-0.4,1-1.4,1.5-2.4,1c-3.6-1.5-4.5,0.6-4.8,3.4c-0.3,2.4-0.2,4.7-0.3,7.1c0,1.5-0.5,2.5-2.2,2.6
			c-1.7,0-2.3-1.1-2.4-2.5C466.8,433.6,466.9,431.6,466.9,429.5C466.9,429.5,466.9,429.5,466.9,429.5z"/>
		<path class="st5" d="M141.9,429.2c0-1.8-0.1-3.7,0-5.5c0.1-1.4,0.6-2.5,2.3-2.6c1.7-0.1,2.3,1,2.3,2.5c0,4.1,0,8.2,0,12.3
			c0,1.3-0.7,2.2-2.2,2.3c-1.5,0.1-2.2-0.9-2.3-2.2C141.8,433.7,141.9,431.5,141.9,429.2C141.9,429.2,141.9,429.2,141.9,429.2z"/>
		<path class="st5" d="M625.6,429.5c0,2,0,4.1,0,6.1c0,1.5-0.6,2.5-2.3,2.5c-1.7,0-2.3-1.2-2.3-2.6c-0.1-4-0.1-8,0-11.9
			c0-1.4,0.7-2.5,2.3-2.5c1.7,0,2.2,1.1,2.3,2.5C625.7,425.6,625.7,427.5,625.6,429.5C625.7,429.5,625.6,429.5,625.6,429.5z"/>
		<path class="st5" d="M625.6,416.6c0,1.5-0.8,2.1-2.2,2.1c-1.4,0-2.3-0.7-2.3-2.1c0-1.2,0.9-1.9,2.1-1.9
			C624.6,414.6,625.5,415.1,625.6,416.6z"/>
		<path class="st5" d="M146.5,416.6c-0.1,1.5-0.9,2.1-2.3,2c-1.4,0-2.3-0.8-2.2-2.1c0.1-1.2,1-1.8,2.2-1.9
			C145.5,414.6,146.4,415.1,146.5,416.6z"/>
		<path class="st5" d="M51.3,428.8c-2.2,0-4.2,0-6.5,0c1-2.9,1.9-5.6,3.1-9.1C49.2,423.1,50.2,425.9,51.3,428.8z"/>
	</g>
</g>
</svg>
